<svg xmlns="http://www.w3.org/2000/svg" width="88" height="53" fill="none" viewBox="0 0 72 53"><path fill="#333" d="M31.2 9v1.598h15.2v3.165l-1.775 5.629H30.697L28.697 5H24v1.599h3.303l2 14.392h16.495L48 14.009v-5.01H31.2Z"/><path fill="#000" d="M32.05 22.605a3.205 3.205 0 0 0-3.2 3.197A3.196 3.196 0 0 0 32.05 29a3.201 3.201 0 0 0 3.2-3.198 3.2 3.2 0 0 0-3.2-3.197Zm0 4.796a1.6 1.6 0 0 1-1.57-1.91 1.6 1.6 0 1 1 1.57 1.91Zm11.2-4.796a3.205 3.205 0 0 0-3.2 3.197A3.196 3.196 0 0 0 43.25 29a3.201 3.201 0 0 0 3.2-3.198 3.2 3.2 0 0 0-3.2-3.197Zm0 4.796a1.6 1.6 0 0 1-1.132-2.73 1.6 1.6 0 0 1 2.731 1.131 1.6 1.6 0 0 1-1.6 1.6Z"/><path fill="#333" d="m12.857 44-3.664-4.89H8.03V44H6.386V33.09H8.03v4.608h.538l4.123-4.607H14.7l-4.362 4.884L14.866 44h-2.008Zm6.251.165c-.767 0-1.436-.176-2.008-.527a3.557 3.557 0 0 1-1.332-1.476c-.316-.632-.474-1.37-.474-2.216 0-.848.159-1.59.474-2.226a3.55 3.55 0 0 1 1.332-1.481c.572-.352 1.241-.527 2.008-.527.767 0 1.437.175 2.008.527a3.55 3.55 0 0 1 1.332 1.48c.316.636.474 1.379.474 2.227 0 .846-.158 1.584-.474 2.216a3.556 3.556 0 0 1-1.332 1.476c-.571.351-1.24.527-2.008.527Zm.006-1.337c.497 0 .909-.131 1.235-.394.327-.263.569-.613.725-1.05.16-.436.24-.917.24-1.443 0-.522-.08-1.001-.24-1.438a2.343 2.343 0 0 0-.725-1.06c-.326-.267-.738-.4-1.235-.4-.501 0-.916.133-1.247.4a2.38 2.38 0 0 0-.73 1.06 4.242 4.242 0 0 0-.234 1.438c0 .526.078 1.007.235 1.444.16.436.402.786.73 1.049.33.263.745.394 1.246.394Zm5.586 4.24v-11.25h1.556v1.327h.133a4.46 4.46 0 0 1 .4-.592c.173-.223.415-.419.724-.586.308-.17.717-.255 1.225-.255a3.2 3.2 0 0 1 1.768.5c.519.334.925.815 1.22 1.444.298.628.447 1.385.447 2.27 0 .883-.147 1.642-.442 2.274-.294.628-.7 1.113-1.214 1.454a3.145 3.145 0 0 1-1.763.506c-.498 0-.904-.084-1.22-.25a2.308 2.308 0 0 1-.735-.586 4.433 4.433 0 0 1-.41-.597h-.096v4.341H24.7Zm1.56-7.159c0 .575.084 1.08.251 1.513.167.433.409.772.725 1.017.316.242.703.362 1.16.362.477 0 .874-.126 1.194-.378.32-.255.561-.602.724-1.038a4.11 4.11 0 0 0 .25-1.476c0-.54-.08-1.024-.244-1.454a2.226 2.226 0 0 0-.725-1.017c-.32-.25-.719-.373-1.198-.373-.462 0-.852.119-1.172.357-.316.237-.556.57-.72.996-.162.426-.244.923-.244 1.491Zm7.213 1.928h1.63a.944.944 0 0 0 .453.773c.284.18.652.271 1.102.271.459 0 .85-.097 1.172-.293.324-.198.485-.506.485-.921 0-.249-.062-.465-.186-.65a1.183 1.183 0 0 0-.517-.437 1.833 1.833 0 0 0-.783-.154h-1.332v-1.252h1.332c.451 0 .788-.103 1.012-.309.224-.206.336-.463.336-.772a.997.997 0 0 0-.363-.805c-.237-.206-.57-.309-.996-.309-.433 0-.793.098-1.081.293-.288.192-.439.44-.453.746h-1.608c.01-.458.149-.86.415-1.204a2.64 2.64 0 0 1 1.087-.81c.458-.195.978-.292 1.56-.292.608 0 1.133.097 1.577.293.444.195.787.465 1.028.81.245.344.368.74.368 1.187 0 .451-.135.82-.405 1.108-.266.284-.614.488-1.044.613v.085c.316.021.596.117.841.288.245.17.437.396.576.676.138.28.207.598.207.953 0 .501-.138.934-.415 1.3-.273.366-.653.648-1.14.847-.483.196-1.035.293-1.657.293-.603 0-1.145-.094-1.624-.282-.476-.192-.854-.462-1.135-.81a2.054 2.054 0 0 1-.442-1.236Zm9.619-.069 3.606-5.95h1.715V44h-1.56v-5.955L43.263 44H41.53v-8.182h1.56v5.95ZM56.1 39.222v1.38h-4.432v-1.38H56.1Zm-3.985-3.404V44h-1.56v-8.182h1.56Zm5.098 0V44h-1.556v-8.182h1.556Zm4.512 8.363c-.519 0-.988-.096-1.407-.287a2.37 2.37 0 0 1-.996-.847c-.241-.37-.362-.823-.362-1.359 0-.461.089-.841.266-1.14.178-.298.418-.534.72-.708a3.717 3.717 0 0 1 1.012-.394c.373-.09.752-.157 1.14-.203l1.193-.138c.305-.04.527-.101.666-.187.138-.085.207-.223.207-.415v-.037c0-.466-.131-.826-.394-1.082-.26-.255-.646-.383-1.161-.383-.536 0-.959.119-1.268.357-.305.234-.517.495-.634.783L59.21 37.8c.178-.497.437-.899.778-1.204.345-.31.74-.533 1.188-.671a4.639 4.639 0 0 1 1.412-.213c.326 0 .672.039 1.038.117.37.074.714.213 1.034.415a2.3 2.3 0 0 1 .793.869c.206.372.31.857.31 1.454V44h-1.556v-1.119h-.064a2.266 2.266 0 0 1-.463.608 2.456 2.456 0 0 1-.794.495c-.323.131-.71.197-1.161.197Zm.346-1.278c.44 0 .817-.087 1.13-.261.315-.174.555-.402.718-.682.167-.284.25-.588.25-.911v-1.055c-.056.057-.166.11-.33.16-.16.046-.342.087-.548.123-.206.032-.407.062-.602.09l-.49.064c-.31.04-.591.105-.847.197a1.454 1.454 0 0 0-.607.4c-.15.17-.224.397-.224.681 0 .395.145.693.437.895.29.2.662.299 1.113.299Z"/></svg>