<svg xmlns="http://www.w3.org/2000/svg" width="88" height="53" fill="none" viewBox="0 0 91 53"><path fill="#333" d="M55.291 7.095a6.38 6.38 0 0 0-2.069-1.55A5.778 5.778 0 0 0 50.781 5a5.77 5.77 0 0 0-2.44.546A6.383 6.383 0 0 0 46.27 7.1l-.772.878-.766-.876-.005-.006a6.381 6.381 0 0 0-2.068-1.55A5.779 5.779 0 0 0 40.22 5a5.78 5.78 0 0 0-2.44.545 6.382 6.382 0 0 0-2.069 1.55l-.344.387c-1.195 1.341-1.867 3.16-1.867 5.058 0 1.898.672 3.717 1.867 5.059l9.084 10.193 1.026 1.206.025-.028.026.03.961-1.138L55.636 17.6c1.194-1.343 1.864-3.162 1.864-5.059 0-1.897-.67-3.716-1.864-5.059l-.345-.386Zm-.783 9.24L45.501 26.44l-9.007-10.107c-.896-1.006-1.4-2.37-1.4-3.794 0-1.423.504-2.788 1.4-3.794l.345-.386c.896-1.006 2.111-1.571 3.379-1.572 1.267 0 2.483.564 3.38 1.57l1.898 2.167 1.906-2.165a4.785 4.785 0 0 1 1.551-1.163 4.334 4.334 0 0 1 1.83-.409c.628 0 1.25.14 1.83.409.58.27 1.107.665 1.551 1.163l.345.386c.895 1.007 1.398 2.372 1.398 3.794 0 1.423-.503 2.787-1.399 3.794ZM6.218 33.09h1.63v8.012h.1l5.551-8.011h1.524V44h-1.646v-8h-.102l-5.54 8H6.219V33.09Zm10.593 8.747h1.63a.944.944 0 0 0 .453.773c.284.18.651.271 1.102.271.459 0 .85-.097 1.172-.293.323-.198.485-.506.485-.921 0-.249-.062-.465-.186-.65a1.183 1.183 0 0 0-.517-.437 1.833 1.833 0 0 0-.783-.154h-1.332v-1.252h1.332c.45 0 .788-.103 1.012-.309.224-.206.336-.463.336-.772a.997.997 0 0 0-.363-.805c-.238-.206-.57-.309-.996-.309-.433 0-.793.098-1.081.293-.288.192-.439.44-.453.746h-1.609c.011-.458.15-.86.416-1.204a2.64 2.64 0 0 1 1.087-.81c.458-.195.978-.292 1.56-.292.607 0 1.133.097 1.577.293.444.195.787.465 1.028.81.245.344.368.74.368 1.187 0 .451-.135.82-.405 1.108-.267.284-.615.488-1.044.613v.085c.316.021.596.117.841.288.245.17.437.396.576.676.138.28.207.598.207.953 0 .501-.138.934-.415 1.3-.274.366-.654.648-1.14.847-.483.196-1.035.293-1.657.293-.603 0-1.145-.094-1.624-.282-.476-.192-.854-.462-1.135-.81a2.054 2.054 0 0 1-.442-1.236Zm14.37-9.066.66 1.007a2.172 2.172 0 0 1-.836.48 4.8 4.8 0 0 1-1.07.175 71.74 71.74 0 0 1-1.39.059c-.59.018-1.075.145-1.455.383-.38.235-.673.583-.879 1.044-.202.459-.333 1.034-.394 1.726h.101a2.645 2.645 0 0 1 1.108-1.14 3.372 3.372 0 0 1 1.604-.378c.66 0 1.248.151 1.763.453.515.302.92.744 1.214 1.326.299.58.448 1.288.448 2.126 0 .848-.157 1.582-.469 2.2a3.395 3.395 0 0 1-1.31 1.432c-.561.334-1.224.501-1.987.501-.764 0-1.43-.172-1.998-.517-.564-.348-1.003-.863-1.316-1.544-.308-.682-.463-1.524-.463-2.525v-.81c0-1.871.334-3.28 1.002-4.224.667-.945 1.665-1.43 2.993-1.454.43-.01.813-.013 1.15-.005.338.003.633-.013.885-.048.256-.04.469-.128.64-.267Zm-2.887 10.057c.444 0 .826-.112 1.145-.336.323-.227.572-.548.746-.964.174-.415.261-.905.261-1.47 0-.554-.087-1.024-.26-1.411a1.956 1.956 0 0 0-.747-.885c-.323-.206-.71-.309-1.16-.309-.335 0-.633.06-.896.176a1.816 1.816 0 0 0-.676.506 2.433 2.433 0 0 0-.432.82c-.1.32-.152.688-.16 1.103 0 .845.194 1.518.581 2.02.39.5.923.75 1.598.75Zm5.54 4.24v-11.25h1.555v1.327h.133a4.45 4.45 0 0 1 .4-.592c.174-.223.415-.419.724-.586.31-.17.718-.255 1.225-.255.661 0 1.25.167 1.769.5.518.334.925.815 1.22 1.444.298.628.447 1.385.447 2.27 0 .883-.147 1.642-.442 2.274-.295.628-.7 1.113-1.214 1.454a3.145 3.145 0 0 1-1.764.506c-.497 0-.903-.084-1.22-.25a2.308 2.308 0 0 1-.734-.586 4.433 4.433 0 0 1-.41-.597h-.097v4.341h-1.592Zm1.56-7.159c0 .575.084 1.08.25 1.513.168.433.41.772.725 1.017.316.242.703.362 1.162.362.475 0 .873-.126 1.193-.378.32-.255.56-.602.724-1.038a4.11 4.11 0 0 0 .25-1.476c0-.54-.081-1.024-.245-1.454a2.227 2.227 0 0 0-.724-1.017c-.32-.25-.719-.373-1.198-.373-.462 0-.853.119-1.172.357-.316.237-.556.57-.72.996-.163.426-.244.923-.244 1.491Zm10.079 4.272c-.519 0-.987-.096-1.407-.287a2.369 2.369 0 0 1-.996-.847c-.241-.37-.362-.823-.362-1.359 0-.461.089-.841.267-1.14a1.96 1.96 0 0 1 .719-.708 3.717 3.717 0 0 1 1.012-.394c.372-.09.752-.157 1.14-.203l1.193-.138c.305-.04.527-.101.666-.187.138-.085.207-.223.207-.415v-.037c0-.466-.131-.826-.394-1.082-.26-.255-.646-.383-1.161-.383-.536 0-.959.119-1.268.357-.305.234-.517.495-.634.783L42.96 37.8c.177-.497.436-.899.777-1.204.345-.31.74-.533 1.188-.671a4.638 4.638 0 0 1 1.412-.213c.326 0 .673.039 1.038.117.37.074.714.213 1.034.415a2.3 2.3 0 0 1 .793.869c.206.372.31.857.31 1.454V44h-1.556v-1.119h-.064a2.264 2.264 0 0 1-.463.608c-.206.199-.47.364-.794.495-.323.131-.71.197-1.161.197Zm.346-1.278c.44 0 .817-.087 1.13-.261.315-.174.555-.402.718-.682.167-.284.25-.588.25-.911v-1.055c-.056.057-.166.11-.33.16-.16.046-.342.087-.548.123-.206.032-.407.062-.602.09l-.49.064c-.31.04-.592.105-.847.197a1.454 1.454 0 0 0-.607.4c-.15.17-.224.397-.224.681 0 .395.145.693.437.895.29.2.662.299 1.113.299Zm11.358-3.681v1.38h-4.432v-1.38h4.432Zm-3.985-3.404V44h-1.56v-8.182h1.56Zm5.098 0V44h-1.555v-8.182h1.555Zm7.676 3.404v1.38h-4.432v-1.38h4.432Zm-3.984-3.404V44H60.42v-8.182h1.56Zm5.097 0V44h-1.555v-8.182h1.555Zm5.577 8.347c-.767 0-1.436-.176-2.008-.527a3.556 3.556 0 0 1-1.332-1.476c-.316-.632-.474-1.37-.474-2.216 0-.848.158-1.59.474-2.226a3.55 3.55 0 0 1 1.332-1.481c.572-.352 1.241-.527 2.008-.527.767 0 1.437.175 2.008.527a3.55 3.55 0 0 1 1.332 1.48c.316.636.474 1.379.474 2.227 0 .846-.158 1.584-.474 2.216a3.556 3.556 0 0 1-1.332 1.476c-.571.351-1.24.527-2.008.527Zm.005-1.337c.498 0 .91-.131 1.236-.394a2.31 2.31 0 0 0 .725-1.05c.16-.436.24-.917.24-1.443 0-.522-.08-1.001-.24-1.438a2.344 2.344 0 0 0-.725-1.06c-.326-.267-.738-.4-1.236-.4-.5 0-.916.133-1.246.4a2.38 2.38 0 0 0-.73 1.06 4.244 4.244 0 0 0-.234 1.438c0 .526.078 1.007.234 1.444.16.436.403.786.73 1.049.33.263.746.394 1.246.394Zm9.113 1.337c-.806 0-1.5-.172-2.082-.517a3.505 3.505 0 0 1-1.343-1.464c-.312-.633-.469-1.373-.469-2.222 0-.838.157-1.576.47-2.216a3.64 3.64 0 0 1 1.32-1.496c.568-.359 1.232-.538 1.992-.538.462 0 .91.076 1.343.229.433.152.822.392 1.166.719.345.327.616.75.815 1.273.2.518.298 1.149.298 1.89v.566h-6.503v-1.194h4.943c0-.419-.086-.79-.256-1.113a1.934 1.934 0 0 0-.719-.772 2.009 2.009 0 0 0-1.076-.283c-.448 0-.838.11-1.172.33a2.22 2.22 0 0 0-.767.853 2.46 2.46 0 0 0-.266 1.134v.933c0 .547.096 1.012.287 1.395.196.384.467.677.815.88.348.198.755.297 1.22.297.302 0 .577-.042.826-.127a1.711 1.711 0 0 0 1.06-1.039l1.507.272a2.73 2.73 0 0 1-.65 1.166 3.15 3.15 0 0 1-1.166.773c-.465.18-.996.271-1.593.271Z"/></svg>