<svg xmlns="http://www.w3.org/2000/svg" width="70" height="20" fill="none"><path fill="#333" d="M24.572 5.53h4.635c.87 0 1.55.245 2.04.735.5.49.75 1.145.75 1.965 0 .39-.055.725-.165 1.005-.11.27-.25.495-.42.675-.17.17-.365.3-.585.39-.22.08-.435.13-.645.15v.09c.21.01.44.06.69.15.26.09.5.235.72.435.22.19.405.44.555.75.15.3.225.67.225 1.11 0 .42-.07.815-.21 1.185-.13.37-.315.69-.555.96-.24.27-.525.485-.855.645-.33.15-.69.225-1.08.225h-5.1V5.53Zm1.695 9.015h2.91c.44 0 .785-.115 1.035-.345.25-.23.375-.56.375-.99v-.51c0-.43-.125-.76-.375-.99-.25-.23-.595-.345-1.035-.345h-2.91v3.18Zm0-4.59h2.625c.42 0 .745-.105.975-.315.23-.22.345-.53.345-.93v-.48c0-.4-.115-.705-.345-.915-.23-.22-.555-.33-.975-.33h-2.625v2.97ZM34.34 8.2h1.635v2.61h1.995c.39 0 .745.06 1.065.18.32.11.595.28.825.51.23.22.41.49.54.81.13.32.195.685.195 1.095 0 .83-.24 1.47-.72 1.92-.48.45-1.11.675-1.89.675H34.34V8.2Zm3.33 6.525c.38 0 .68-.08.9-.24.22-.17.33-.43.33-.78v-.615c0-.35-.11-.605-.33-.765-.22-.16-.52-.24-.9-.24h-1.695v2.64h1.695ZM41.765 8.2H43.4V16h-1.635V8.2Zm3.971 0h1.605v3.81l-.15 1.845h.06l.93-1.665 2.7-3.99h1.485V16h-1.605v-3.81l.15-1.845h-.06l-.93 1.665-2.7 3.99h-1.485V8.2Zm3.33-1.035c-.6 0-1.08-.12-1.44-.36-.35-.25-.63-.59-.84-1.02l-.3-.66 1.335-.54.51 1.35a2.77 2.77 0 0 0 .735.105c.12 0 .245-.01.375-.03a2.5 2.5 0 0 0 .36-.075l.51-1.35 1.335.54-.3.66c-.21.43-.495.77-.855 1.02-.35.24-.825.36-1.425.36Zm7.255 2.37h-2.49V8.2h6.615v1.335h-2.49V16h-1.635V9.535ZM61.923 8.2h1.605v3.81l-.15 1.845h.06l.93-1.665 2.7-3.99h1.485V16h-1.605v-3.81l.15-1.845h-.06l-.93 1.665-2.7 3.99h-1.485V8.2Z"/><path fill="#000" d="M12 10.75v-1.5H5.25V7L1.5 10l3.75 3v-2.25H12Z"/><path fill="#000" d="M15 3.25H8.25c-.827 0-1.5.673-1.5 1.5v3h1.5v-3H15v10.5H8.25v-3h-1.5v3c0 .827.673 1.5 1.5 1.5H15c.827 0 1.5-.673 1.5-1.5V4.75c0-.827-.673-1.5-1.5-1.5Z"/></svg>