<svg xmlns="http://www.w3.org/2000/svg" width="88" height="53" fill="none" viewBox="0 0 65 53"><path fill="#333" d="M32.779 6.562a.747.747 0 0 0-.558 0l-8.952 3.598 3.606 1.448 9.231-3.71-3.327-1.336Zm5.346 2.15-9.231 3.709 3.606 1.448 9.231-3.71-3.606-1.448ZM43 11.273l-9.75 3.918v11.94L43 23.215V11.273Zm-11.25 15.86V15.191L22 11.273v11.942l9.75 3.92Zm-.085-21.972a2.24 2.24 0 0 1 1.67 0L44.03 9.46a.75.75 0 0 1 .471.7v13.055a1.513 1.513 0 0 1-.944 1.4l-10.777 4.33a.747.747 0 0 1-.558 0l-10.776-4.33a1.501 1.501 0 0 1-.945-1.4V10.16a.756.756 0 0 1 .471-.7l10.694-4.298ZM10.24 44.15c-.731 0-1.385-.127-1.96-.379-.572-.252-1.024-.602-1.358-1.05a2.786 2.786 0 0 1-.533-1.565h1.673c.021.323.13.603.325.841.199.234.458.416.777.544.32.127.675.191 1.066.191.43 0 .81-.074 1.14-.224.333-.149.594-.356.783-.623.188-.27.282-.58.282-.932 0-.366-.094-.687-.282-.964-.185-.28-.457-.5-.815-.66-.355-.16-.785-.24-1.29-.24h-.92v-1.343h.92c.405 0 .76-.072 1.066-.218a1.74 1.74 0 0 0 .724-.607 1.63 1.63 0 0 0 .261-.922c0-.337-.076-.63-.229-.879a1.539 1.539 0 0 0-.639-.59 2.077 2.077 0 0 0-.97-.214c-.354 0-.686.066-.995.197a1.839 1.839 0 0 0-.746.554 1.425 1.425 0 0 0-.31.858H6.619c.018-.59.192-1.108.522-1.556a3.376 3.376 0 0 1 1.321-1.049 4.298 4.298 0 0 1 1.822-.378c.7 0 1.303.136 1.811.41.511.27.906.63 1.183 1.081.28.451.419.945.415 1.481.004.61-.167 1.13-.511 1.555-.341.427-.796.712-1.364.858v.085c.724.11 1.286.398 1.683.863.402.465.6 1.043.597 1.731.004.6-.163 1.139-.5 1.614-.335.476-.79.85-1.37 1.124-.579.27-1.24.405-1.987.405Zm8.273.031c-.519 0-.988-.096-1.407-.287a2.37 2.37 0 0 1-.996-.847c-.241-.37-.362-.823-.362-1.359 0-.461.089-.841.267-1.14a1.96 1.96 0 0 1 .719-.708 3.717 3.717 0 0 1 1.012-.394c.373-.09.753-.157 1.14-.203l1.193-.138c.305-.04.527-.101.666-.187.138-.085.207-.223.207-.415v-.037c0-.466-.131-.826-.394-1.082-.259-.255-.646-.383-1.161-.383-.536 0-.959.119-1.268.357-.305.234-.517.495-.634.783l-1.497-.341c.178-.497.437-.899.778-1.204.345-.31.74-.533 1.188-.671a4.639 4.639 0 0 1 1.412-.213c.326 0 .673.039 1.038.117.37.074.714.213 1.034.415a2.3 2.3 0 0 1 .793.869c.206.372.31.857.31 1.454V44h-1.556v-1.119h-.064a2.265 2.265 0 0 1-.463.608c-.206.199-.47.364-.794.495-.323.131-.71.197-1.161.197Zm.346-1.278c.44 0 .817-.087 1.13-.261.315-.174.555-.402.718-.682.167-.284.25-.588.25-.911v-1.055c-.056.057-.166.11-.33.16-.16.046-.342.087-.548.123-.206.032-.407.062-.602.09l-.49.064c-.31.04-.591.105-.847.197a1.454 1.454 0 0 0-.607.4c-.15.17-.224.397-.224.681 0 .395.145.693.437.895.29.2.662.299 1.113.299ZM24.672 44v-8.182h1.592v3.43h.768l2.7-3.43h1.971l-3.17 3.98L31.74 44h-1.976l-2.466-3.27h-1.034V44h-1.592Zm10.686.181c-.518 0-.987-.096-1.406-.287a2.37 2.37 0 0 1-.996-.847c-.241-.37-.362-.823-.362-1.359 0-.461.089-.841.266-1.14.178-.298.418-.534.72-.708a3.723 3.723 0 0 1 1.011-.394c.373-.09.753-.157 1.14-.203l1.194-.138c.305-.04.527-.101.665-.187.139-.085.208-.223.208-.415v-.037c0-.466-.131-.826-.394-1.082-.26-.255-.646-.383-1.161-.383-.537 0-.96.119-1.268.357-.306.234-.517.495-.634.783l-1.497-.341c.178-.497.437-.899.778-1.204.344-.31.74-.533 1.188-.671a4.639 4.639 0 0 1 1.411-.213c.327 0 .673.039 1.04.117.368.074.713.213 1.032.415.324.203.588.492.794.869.206.372.31.857.31 1.454V44H37.84v-1.119h-.064a2.265 2.265 0 0 1-.464.608c-.206.199-.47.364-.793.495-.324.131-.71.197-1.162.197Zm.347-1.278c.44 0 .816-.087 1.129-.261a1.83 1.83 0 0 0 .719-.682c.167-.284.25-.588.25-.911v-1.055c-.056.057-.166.11-.33.16-.16.046-.343.087-.548.123-.206.032-.407.062-.602.09-.196.025-.36.046-.49.064-.31.04-.592.105-.847.197a1.454 1.454 0 0 0-.608.4c-.149.17-.223.397-.223.681 0 .395.145.693.436.895.292.2.663.299 1.114.299Zm5.328-1.066h1.63a.944.944 0 0 0 .453.773c.284.18.651.271 1.102.271.458 0 .849-.097 1.172-.293.323-.198.485-.506.485-.921 0-.249-.063-.465-.187-.65a1.183 1.183 0 0 0-.516-.437 1.833 1.833 0 0 0-.783-.154h-1.332v-1.252h1.331c.452 0 .789-.103 1.013-.309.223-.206.335-.463.335-.772a.997.997 0 0 0-.362-.805c-.238-.206-.57-.309-.996-.309-.433 0-.794.098-1.081.293-.288.192-.439.44-.453.746h-1.609c.01-.458.15-.86.416-1.204a2.64 2.64 0 0 1 1.086-.81c.458-.195.979-.292 1.561-.292.607 0 1.133.097 1.577.293.444.195.786.465 1.028.81.245.344.367.74.367 1.187 0 .451-.135.82-.405 1.108-.266.284-.614.488-1.044.613v.085c.317.021.597.117.842.288.245.17.437.396.575.676.139.28.208.598.208.953 0 .501-.138.934-.415 1.3-.274.366-.654.648-1.14.847-.483.196-1.035.293-1.657.293-.604 0-1.145-.094-1.625-.282-.475-.192-.854-.462-1.134-.81a2.053 2.053 0 0 1-.442-1.236Zm9.256-3.206h2.376c1.001 0 1.772.248 2.312.745.54.498.81 1.139.81 1.923 0 .512-.121.972-.363 1.38a2.535 2.535 0 0 1-1.06.97c-.465.234-1.031.351-1.7.351h-3.573v-8.182h1.56v6.808h2.014c.458 0 .834-.12 1.13-.357a1.14 1.14 0 0 0 .441-.922c0-.394-.147-.715-.442-.964-.295-.252-.671-.378-1.13-.378H50.29v-1.374ZM56.948 44v-8.182h1.592V44h-1.592Z"/></svg>