<svg xmlns="http://www.w3.org/2000/svg" width="88" height="53" fill="none" viewBox="0 0 77 53"><path fill="#333" d="M17 18v-2h9v-3l5 4-5 4v-3h-9Z"/><path fill="#000" d="M33 8h-9c-1.103 0-2 .897-2 2v4h2v-4h9v14h-9v-4h-2v4c0 1.103.897 2 2 2h9c1.103 0 2-.897 2-2V10c0-1.103-.897-2-2-2Z"/><path fill="#333" d="M6.462 44V33.09h3.995c.774 0 1.415.129 1.923.384.508.253.888.595 1.14 1.029.252.43.378.914.378 1.454 0 .454-.083.838-.25 1.15a2.06 2.06 0 0 1-.671.746c-.277.185-.583.32-.917.405v.106c.363.018.716.135 1.06.352.349.213.636.517.864.91.227.395.34.874.34 1.439 0 .558-.131 1.058-.394 1.502-.259.44-.66.79-1.204 1.05-.543.255-1.237.383-2.082.383H6.462Zm1.646-1.412h2.376c.788 0 1.353-.152 1.694-.458.34-.305.511-.687.511-1.145 0-.344-.087-.66-.26-.948a1.865 1.865 0 0 0-.747-.687c-.32-.17-.7-.256-1.14-.256H8.108v3.494Zm0-4.778h2.205c.37 0 .702-.07.996-.213.299-.142.535-.34.709-.596.177-.26.266-.565.266-.916 0-.452-.158-.83-.474-1.135-.316-.306-.8-.458-1.454-.458H8.108v3.318Zm11.487 6.355c-.767 0-1.436-.176-2.008-.527a3.557 3.557 0 0 1-1.332-1.476c-.316-.632-.474-1.37-.474-2.216 0-.848.158-1.59.474-2.226a3.55 3.55 0 0 1 1.332-1.481c.572-.352 1.241-.527 2.008-.527.767 0 1.437.175 2.008.527a3.549 3.549 0 0 1 1.332 1.48c.316.636.474 1.379.474 2.227 0 .846-.158 1.584-.474 2.216a3.555 3.555 0 0 1-1.332 1.476c-.571.351-1.24.527-2.008.527Zm.006-1.337c.497 0 .909-.131 1.235-.394.327-.263.569-.613.725-1.05.16-.436.24-.917.24-1.443 0-.522-.08-1.001-.24-1.438a2.343 2.343 0 0 0-.725-1.06c-.326-.267-.738-.4-1.235-.4-.501 0-.917.133-1.247.4a2.38 2.38 0 0 0-.73 1.06 4.242 4.242 0 0 0-.234 1.438c0 .526.078 1.007.234 1.444.16.436.403.786.73 1.049.33.263.746.394 1.247.394Zm7.147-1.06 3.606-5.95h1.715V44h-1.56v-5.955L26.918 44h-1.732v-8.182h1.56v5.95Zm2.924-8.72h1.31c0 .6-.213 1.089-.639 1.465-.422.373-.994.56-1.715.56-.717 0-1.287-.187-1.71-.56-.422-.376-.634-.865-.634-1.465h1.305c0 .267.078.503.235.709.156.202.424.303.804.303.373 0 .64-.1.799-.303.163-.203.245-.439.245-.709Zm3.524 4.145v-1.375h6.903v1.375H37.43V44h-1.555v-6.807h-2.68Zm10.148 4.575 3.606-5.95h1.716V44h-1.561v-5.955L43.515 44h-1.731v-8.182h1.56v5.95Z"/></svg>