<svg xmlns="http://www.w3.org/2000/svg" width="88" height="53" fill="none" viewBox="0 0 77 53"><path fill="#333" d="m48.126 21.383-4.75-2.367 1.791-2.517c.418-.587.637-1.246.637-1.915V10.6c0-1.485-.77-2.91-2.139-3.96C42.295 5.59 40.437 5 38.5 5c-1.937 0-3.795.59-5.165 1.64-1.37 1.05-2.14 2.475-2.14 3.96v3.984c.001.67.22 1.328.638 1.915l1.79 2.517-4.75 2.367c-.729.362-1.329.859-1.744 1.445-.414.586-.63 1.242-.629 1.909V29h24v-4.263c.002-.667-.215-1.323-.63-1.91-.414-.585-1.014-1.082-1.744-1.444Zm.287 6.017H28.587v-2.663a1.97 1.97 0 0 1 .378-1.146c.249-.351.608-.65 1.046-.867l6.37-3.174-2.716-3.817a1.981 1.981 0 0 1-.382-1.149V10.6c0-1.06.55-2.078 1.528-2.828S37.116 6.6 38.5 6.6s2.71.421 3.69 1.172c.978.75 1.527 1.767 1.527 2.828v3.984c0 .402-.131.797-.382 1.15L40.62 19.55l6.369 3.174a2.79 2.79 0 0 1 1.046.867c.25.352.379.746.378 1.146V27.4ZM14.96 33.09V44h-1.64v-9.503H8.183V44h-1.64V33.09h8.416Zm2.389 13.978v-11.25h1.555v1.327h.134a4.45 4.45 0 0 1 .4-.592c.173-.223.415-.419.724-.586.308-.17.717-.255 1.225-.255a3.2 3.2 0 0 1 1.768.5c.519.334.925.815 1.22 1.444.298.628.447 1.385.447 2.27 0 .883-.147 1.642-.442 2.274-.294.628-.7 1.113-1.214 1.454a3.145 3.145 0 0 1-1.763.506c-.497 0-.904-.084-1.22-.25a2.31 2.31 0 0 1-.735-.586 4.43 4.43 0 0 1-.41-.597h-.096v4.341h-1.593Zm1.56-7.159c0 .575.084 1.08.251 1.513.167.433.408.772.724 1.017.317.242.704.362 1.162.362.476 0 .873-.126 1.193-.378.32-.255.561-.602.724-1.038a4.11 4.11 0 0 0 .25-1.476 4.07 4.07 0 0 0-.244-1.454 2.226 2.226 0 0 0-.725-1.017c-.32-.25-.719-.373-1.198-.373-.462 0-.853.119-1.172.357-.316.237-.556.57-.72.996-.163.426-.244.923-.244 1.491Zm11.144 4.256c-.767 0-1.436-.176-2.008-.527a3.557 3.557 0 0 1-1.332-1.476c-.316-.632-.474-1.37-.474-2.216 0-.848.158-1.59.474-2.226a3.55 3.55 0 0 1 1.332-1.481c.572-.352 1.241-.527 2.008-.527.767 0 1.437.175 2.008.527a3.549 3.549 0 0 1 1.332 1.48c.316.636.474 1.379.474 2.227 0 .846-.158 1.584-.474 2.216a3.555 3.555 0 0 1-1.332 1.476c-.571.351-1.24.527-2.008.527Zm.005-1.337c.498 0 .91-.131 1.236-.394.327-.263.569-.613.725-1.05.16-.436.24-.917.24-1.443 0-.522-.08-1.001-.24-1.438a2.343 2.343 0 0 0-.725-1.06c-.326-.267-.738-.4-1.236-.4-.5 0-.916.133-1.246.4a2.38 2.38 0 0 0-.73 1.06 4.242 4.242 0 0 0-.234 1.438c0 .526.078 1.007.234 1.444.16.436.403.786.73 1.049.33.263.746.394 1.246.394Zm9.108 3.958V33.09h1.593v13.695h-1.593Zm0-2.62c-.579 0-1.106-.1-1.582-.3a3.542 3.542 0 0 1-1.23-.862 3.91 3.91 0 0 1-.8-1.337 5.1 5.1 0 0 1-.277-1.72c0-.636.093-1.213.277-1.732a3.91 3.91 0 0 1 .8-1.337 3.54 3.54 0 0 1 1.23-.863 4.002 4.002 0 0 1 1.582-.303h.394v8.453h-.394Zm0-1.343h.224v-5.769h-.224c-.384 0-.717.078-1.002.234a2.02 2.02 0 0 0-.708.634 2.93 2.93 0 0 0-.426.922 4.284 4.284 0 0 0-.139 1.102c0 .519.084.997.25 1.433.168.434.42.783.757 1.05.337.262.76.394 1.268.394Zm1.593 1.342h-.4v-8.453h.4c.578 0 1.106.1 1.582.303.475.203.884.49 1.225.863.344.373.609.819.793 1.337.189.519.283 1.096.283 1.731 0 .629-.094 1.202-.283 1.72-.184.52-.449.965-.793 1.338-.341.373-.75.66-1.225.863a4.064 4.064 0 0 1-1.583.298Zm0-1.342a2.12 2.12 0 0 0 1-.224c.285-.153.521-.362.71-.628a2.91 2.91 0 0 0 .42-.922c.092-.348.139-.715.139-1.103 0-.514-.084-.99-.25-1.427a2.363 2.363 0 0 0-.752-1.06c-.337-.27-.76-.405-1.268-.405h-.229v5.769h.23Zm7.213-1.055 3.606-5.95h1.716V44h-1.561v-5.955L48.143 44H46.41v-8.182h1.561v5.95ZM54.79 44l-.005-1.38h.293c.227 0 .417-.048.57-.143.156-.1.284-.267.383-.501.1-.234.176-.558.23-.97.053-.415.092-.937.117-1.566l.144-3.622h5.71V44h-1.56v-6.807h-2.675l-.128 2.78a11.214 11.214 0 0 1-.208 1.769c-.102.504-.253.925-.452 1.262a1.968 1.968 0 0 1-.767.751c-.313.163-.693.245-1.14.245h-.512Zm10.764-5.37h2.376c1.001 0 1.772.25 2.312.746.54.498.81 1.139.81 1.923 0 .512-.121.972-.363 1.38a2.535 2.535 0 0 1-1.06.97c-.465.234-1.031.351-1.699.351h-3.574v-8.182h1.56v6.808h2.014c.458 0 .835-.12 1.13-.357a1.14 1.14 0 0 0 .441-.922c0-.394-.147-.715-.442-.964-.294-.252-.67-.378-1.129-.378h-2.376v-1.374Z"/></svg>