<svg xmlns="http://www.w3.org/2000/svg" width="18" height="19" fill="none" viewBox="0 0 22 22"><path fill="#EEE" d="m20.433 17.246-3.42-3.442-2.632-1.094a7.462 7.462 0 0 0 1.344-4.282c0-4.12-3.33-7.471-7.425-7.471C4.206.957.875 4.308.875 8.428S4.205 15.9 8.3 15.9a7.353 7.353 0 0 0 4.287-1.375l1.084 2.64 3.42 3.443a2.362 2.362 0 0 0 1.671.696 2.351 2.351 0 0 0 1.671-.696 2.377 2.377 0 0 0 .692-1.681 2.391 2.391 0 0 0-.692-1.681ZM2.225 8.428c0-3.37 2.725-6.113 6.075-6.113s6.075 2.742 6.075 6.113c0 3.37-2.725 6.113-6.075 6.113S2.225 11.8 2.225 8.428Zm17.253 11.22a1.01 1.01 0 0 1-1.431 0l-3.23-3.251-1.009-2.455 2.44 1.014 3.23 3.25a1.023 1.023 0 0 1 0 1.441Z"/></svg>