<svg width="88" height="53" viewBox="0 0 72 53" fill="none" xmlns="http://www.w3.org/2000/svg">
<path d="M31.2 8.99908V10.5979H46.4V13.7629L44.625 19.3916H30.6966L28.6966 5H24V6.59885H27.3034L29.3034 20.9905H45.7984L48 14.0088V8.99908H31.2Z" fill="#333333"/>
<path d="M32.0492 22.6046C31.2008 22.6055 30.3874 22.9428 29.7875 23.5422C29.1876 24.1417 28.8502 24.9545 28.8492 25.8023C28.8492 26.6504 29.1863 27.4637 29.7865 28.0634C30.3866 28.6631 31.2005 29 32.0492 29C32.8979 29 33.7118 28.6631 34.3119 28.0634C34.9121 27.4637 35.2492 26.6504 35.2492 25.8023C35.2483 24.9545 34.9108 24.1417 34.3109 23.5422C33.711 22.9427 32.8976 22.6055 32.0492 22.6046ZM32.0492 27.4011C31.7328 27.4011 31.4234 27.3074 31.1603 27.1317C30.8972 26.956 30.6921 26.7063 30.571 26.4141C30.4499 26.122 30.4182 25.8005 30.4799 25.4904C30.5417 25.1802 30.6941 24.8953 30.9178 24.6717C31.1416 24.4481 31.4267 24.2959 31.7371 24.2342C32.0474 24.1725 32.3691 24.2041 32.6615 24.3251C32.9539 24.4462 33.2037 24.6511 33.3796 24.914C33.5554 25.1769 33.6492 25.4861 33.6492 25.8023C33.6487 26.2262 33.48 26.6326 33.18 26.9323C32.8801 27.232 32.4734 27.4006 32.0492 27.4011Z" fill="black"/>
<path d="M43.2492 22.6046C42.4008 22.6055 41.5874 22.9428 40.9875 23.5422C40.3876 24.1417 40.0502 24.9545 40.0492 25.8023C40.0492 26.6504 40.3863 27.4637 40.9865 28.0634C41.5866 28.6631 42.4005 29 43.2492 29C44.0979 29 44.9118 28.6631 45.5119 28.0634C46.1121 27.4637 46.4492 26.6504 46.4492 25.8023C46.4482 24.9545 46.1108 24.1417 45.5109 23.5422C44.911 22.9427 44.0976 22.6055 43.2492 22.6046ZM43.2492 27.4011C42.9327 27.4011 42.6234 27.3074 42.3603 27.1317C42.0972 26.956 41.8921 26.7063 41.771 26.4141C41.6499 26.122 41.6182 25.8005 41.6799 25.4904C41.7417 25.1802 41.8941 24.8953 42.1178 24.6717C42.3416 24.4481 42.6267 24.2959 42.937 24.2342C43.2474 24.1725 43.5691 24.2041 43.8615 24.3251C44.1538 24.4462 44.4037 24.6511 44.5795 24.914C44.7554 25.1769 44.8492 25.4861 44.8492 25.8023C44.8487 26.2262 44.68 26.6326 44.38 26.9323C44.0801 27.232 43.6734 27.4006 43.2492 27.4011Z" fill="black"/>
<path d="M12.8575 44L9.19269 39.1101H8.03147V44H6.38552V33.0909H8.03147V37.6985H8.56947L12.6923 33.0909H14.7005L10.3379 37.9755L14.8656 44H12.8575ZM19.1084 44.1651C18.3413 44.1651 17.6719 43.9893 17.1002 43.6378C16.5285 43.2862 16.0846 42.7944 15.7685 42.1623C15.4525 41.5302 15.2944 40.7915 15.2944 39.9464C15.2944 39.0977 15.4525 38.3555 15.7685 37.7198C16.0846 37.0842 16.5285 36.5906 17.1002 36.239C17.6719 35.8874 18.3413 35.7116 19.1084 35.7116C19.8754 35.7116 20.5448 35.8874 21.1165 36.239C21.6883 36.5906 22.1321 37.0842 22.4482 37.7198C22.7642 38.3555 22.9223 39.0977 22.9223 39.9464C22.9223 40.7915 22.7642 41.5302 22.4482 42.1623C22.1321 42.7944 21.6883 43.2862 21.1165 43.6378C20.5448 43.9893 19.8754 44.1651 19.1084 44.1651ZM19.1137 42.8281C19.6108 42.8281 20.0228 42.6967 20.3495 42.4339C20.6762 42.1712 20.9177 41.8214 21.0739 41.3846C21.2337 40.9478 21.3136 40.4666 21.3136 39.9411C21.3136 39.419 21.2337 38.9396 21.0739 38.5028C20.9177 38.0625 20.6762 37.7092 20.3495 37.4428C20.0228 37.1765 19.6108 37.0433 19.1137 37.0433C18.613 37.0433 18.1975 37.1765 17.8672 37.4428C17.5405 37.7092 17.2973 38.0625 17.1375 38.5028C16.9812 38.9396 16.9031 39.419 16.9031 39.9411C16.9031 40.4666 16.9812 40.9478 17.1375 41.3846C17.2973 41.8214 17.5405 42.1712 17.8672 42.4339C18.1975 42.6967 18.613 42.8281 19.1137 42.8281ZM24.7001 47.0682V35.8182H26.2555V37.1445H26.3886C26.481 36.9741 26.6141 36.777 26.7881 36.5533C26.9621 36.3295 27.2036 36.1342 27.5126 35.9673C27.8215 35.7969 28.2299 35.7116 28.7377 35.7116C29.3982 35.7116 29.9877 35.8786 30.5062 36.2124C31.0246 36.5462 31.4312 37.0273 31.726 37.6559C32.0243 38.2844 32.1734 39.0408 32.1734 39.9251C32.1734 40.8093 32.0261 41.5675 31.7313 42.1996C31.4366 42.8281 31.0317 43.3129 30.5168 43.6538C30.0019 43.9911 29.4142 44.1598 28.7537 44.1598C28.2565 44.1598 27.8499 44.0763 27.5339 43.9094C27.2214 43.7425 26.9763 43.5472 26.7988 43.3235C26.6212 43.0998 26.4845 42.9009 26.3886 42.7269H26.2927V47.0682H24.7001ZM26.2608 39.9091C26.2608 40.4844 26.3442 40.9886 26.5111 41.4219C26.678 41.8551 26.9195 42.1942 27.2356 42.4393C27.5516 42.6808 27.9387 42.8015 28.3968 42.8015C28.8726 42.8015 29.2704 42.6754 29.59 42.4233C29.9096 42.1676 30.1511 41.8214 30.3144 41.3846C30.4813 40.9478 30.5648 40.456 30.5648 39.9091C30.5648 39.3693 30.4831 38.8846 30.3197 38.4549C30.1599 38.0252 29.9185 37.6861 29.5953 37.4375C29.2757 37.1889 28.8762 37.0646 28.3968 37.0646C27.9351 37.0646 27.5445 37.1836 27.2249 37.4215C26.9089 37.6594 26.6692 37.9915 26.5058 38.4176C26.3425 38.8437 26.2608 39.3409 26.2608 39.9091ZM33.4731 41.8374H35.1031C35.1244 42.1712 35.2753 42.4286 35.5559 42.6097C35.84 42.7908 36.2075 42.8814 36.6585 42.8814C37.1166 42.8814 37.5072 42.7837 37.8304 42.5884C38.1535 42.3896 38.3151 42.0824 38.3151 41.6669C38.3151 41.4183 38.253 41.2017 38.1287 41.017C38.0079 40.8288 37.8357 40.6832 37.612 40.5803C37.3918 40.4773 37.1308 40.4258 36.829 40.4258H35.4973V39.174H36.829C37.28 39.174 37.6173 39.071 37.841 38.8651C38.0648 38.6591 38.1766 38.4016 38.1766 38.0927C38.1766 37.7589 38.0559 37.4908 37.8144 37.2884C37.5765 37.0824 37.2445 36.9794 36.8183 36.9794C36.3851 36.9794 36.0246 37.0771 35.737 37.2724C35.4494 37.4641 35.2984 37.7127 35.2842 38.0181H33.6756C33.6862 37.56 33.8247 37.1587 34.091 36.8143C34.3609 36.4663 34.7231 36.1964 35.1777 36.0046C35.6358 35.8093 36.156 35.7116 36.7384 35.7116C37.3457 35.7116 37.8712 35.8093 38.3151 36.0046C38.759 36.1999 39.1017 36.4698 39.3432 36.8143C39.5882 37.1587 39.7107 37.5547 39.7107 38.0021C39.7107 38.4531 39.5758 38.8224 39.3059 39.1101C39.0396 39.3942 38.6915 39.5984 38.2619 39.7227V39.8079C38.5779 39.8292 38.8584 39.9251 39.1035 40.0955C39.3485 40.266 39.5403 40.4915 39.6788 40.772C39.8172 41.0526 39.8865 41.3704 39.8865 41.7255C39.8865 42.2262 39.748 42.6594 39.471 43.0252C39.1976 43.391 38.8176 43.6733 38.3311 43.8722C37.8481 44.0675 37.2959 44.1651 36.6745 44.1651C36.0708 44.1651 35.5293 44.071 35.0498 43.8828C34.574 43.6911 34.1958 43.4212 33.9153 43.0732C33.6383 42.7251 33.4909 42.3132 33.4731 41.8374ZM43.0918 41.7681L46.698 35.8182H48.4132V44H46.8525V38.0447L43.2623 44H41.5311V35.8182H43.0918V41.7681ZM56.0997 39.2219V40.6016H51.6678V39.2219H56.0997ZM52.1153 35.8182V44H50.5546V35.8182H52.1153ZM57.2129 35.8182V44H55.6575V35.8182H57.2129ZM61.7247 44.1811C61.2062 44.1811 60.7374 44.0852 60.3184 43.8935C59.8994 43.6982 59.5673 43.4158 59.3223 43.0465C59.0808 42.6772 58.9601 42.2244 58.9601 41.6882C58.9601 41.2266 59.0489 40.8466 59.2264 40.5483C59.404 40.25 59.6437 40.0138 59.9455 39.8398C60.2474 39.6658 60.5847 39.5344 60.9576 39.4457C61.3305 39.3569 61.7104 39.2894 62.0975 39.2433C62.5876 39.1864 62.9853 39.1403 63.2907 39.1048C63.5961 39.0657 63.818 39.0036 63.9565 38.9183C64.095 38.8331 64.1643 38.6946 64.1643 38.5028V38.4656C64.1643 38.0004 64.0329 37.6399 63.7701 37.3842C63.5109 37.1286 63.1238 37.0007 62.6089 37.0007C62.0727 37.0007 61.6501 37.1197 61.3411 37.3576C61.0357 37.592 60.8244 37.853 60.7073 38.1406L59.2104 37.7997C59.388 37.3026 59.6472 36.9013 59.9881 36.5959C60.3326 36.2869 60.7286 36.0632 61.176 35.9247C61.6234 35.7827 62.094 35.7116 62.5876 35.7116C62.9143 35.7116 63.2605 35.7507 63.6263 35.8288C63.9956 35.9034 64.3401 36.0419 64.6597 36.2443C64.9828 36.4467 65.2474 36.7362 65.4533 37.1126C65.6593 37.4854 65.7623 37.9702 65.7623 38.5668V44H64.2069V42.8814H64.143C64.04 43.0874 63.8855 43.2898 63.6796 43.4886C63.4736 43.6875 63.209 43.8526 62.8859 43.984C62.5627 44.1154 62.1756 44.1811 61.7247 44.1811ZM62.0709 42.9027C62.5112 42.9027 62.8877 42.8157 63.2002 42.6417C63.5162 42.4677 63.7559 42.2404 63.9193 41.9599C64.0862 41.6758 64.1696 41.3722 64.1696 41.049V39.9943C64.1128 40.0511 64.0027 40.1044 63.8394 40.1541C63.6796 40.2003 63.4967 40.2411 63.2907 40.2766C63.0847 40.3086 62.8841 40.3388 62.6888 40.3672C62.4935 40.392 62.3301 40.4134 62.1987 40.4311C61.8898 40.4702 61.6075 40.5359 61.3518 40.6282C61.0997 40.7205 60.8972 40.8537 60.7445 41.0277C60.5954 41.1982 60.5208 41.4254 60.5208 41.7095C60.5208 42.1037 60.6664 42.402 60.9576 42.6044C61.2488 42.8033 61.6199 42.9027 62.0709 42.9027Z" fill="#333333"/>
</svg>
