<svg width="17" height="16" viewBox="0 0 17 16" fill="none" xmlns="http://www.w3.org/2000/svg">
<path fill-rule="evenodd" clip-rule="evenodd" d="M1.70068 4.84367H14.4021C14.5041 4.84018 14.6063 4.84718 14.7064 4.86452C14.8718 4.89571 15.0237 4.96618 15.1446 5.06786C15.285 5.18328 15.3734 5.33745 15.3941 5.50322C15.398 5.56589 15.3949 5.62874 15.385 5.69092L14.3032 15.2909V15.3079V15.3444C14.296 15.384 14.2859 15.4232 14.2728 15.4617V15.4617V15.4695C14.2154 15.6209 14.1045 15.7534 13.9553 15.8484C13.8062 15.9434 13.6263 15.9964 13.4405 16H2.6364C2.57218 15.9973 2.50845 15.989 2.44621 15.9752C2.38505 15.9596 2.32591 15.9386 2.26972 15.9127V15.9127C2.13709 15.8473 2.02509 15.7552 1.94342 15.6444C1.86176 15.5335 1.81291 15.4073 1.8011 15.2766L0.736055 5.69743C0.723901 5.6258 0.72084 5.55325 0.726926 5.48106C0.748211 5.31759 0.836014 5.16576 0.974929 5.05222C1.1008 4.9474 1.25928 4.8759 1.43138 4.84627C1.52126 4.83281 1.61251 4.82714 1.70372 4.82933L1.70068 4.84367ZM0.860817 1.14705H5.64895V0.782077C5.64819 0.770355 5.64819 0.758606 5.64895 0.746884C5.65853 0.55043 5.75414 0.364276 5.91673 0.225499V0.225499C6.08739 0.081176 6.31748 0.000174827 6.55728 0L9.50441 0H9.55005C9.78417 0.0100408 10.0048 0.0968499 10.1663 0.242444C10.3277 0.388038 10.4176 0.581258 10.4173 0.782077V0.782077V1.14705H15.2861H15.3454C15.5177 1.15912 15.6791 1.22427 15.7997 1.33043C15.9202 1.43659 15.9918 1.57658 16.0012 1.72448C16.0012 1.74794 16.0012 1.76619 16.0012 1.78965V3.07487C16.0012 3.1644 15.9597 3.25027 15.8858 3.31358C15.8119 3.3769 15.7116 3.41246 15.6071 3.41246H0.395241C0.291514 3.41247 0.191967 3.37744 0.118195 3.31497C0.0444233 3.2525 0.00237597 3.16764 0.0011745 3.07878V1.76358C-0.000391501 1.75015 -0.000391501 1.73661 0.0011745 1.72318V1.72318C0.0115984 1.58592 0.0754105 1.45561 0.182419 1.35307C0.289428 1.25053 0.43346 1.18166 0.591513 1.15747C0.680771 1.14744 0.770866 1.14395 0.860817 1.14705V1.14705ZM7.26629 8.01629C7.28466 7.86321 7.36865 7.7214 7.502 7.61829C7.63536 7.51519 7.80861 7.45812 7.98824 7.45812C8.16787 7.45812 8.34113 7.51519 8.47448 7.61829C8.60784 7.7214 8.69182 7.86321 8.71019 8.01629V12.8391C8.69182 12.9922 8.60784 13.134 8.47448 13.2371C8.34113 13.3402 8.16787 13.3973 7.98824 13.3973C7.80861 13.3973 7.63536 13.3402 7.502 13.2371C7.36865 13.134 7.28466 12.9922 7.26629 12.8391V8.01629ZM10.8768 7.99022C10.8967 7.83398 10.9878 7.69079 11.1302 7.59171C11.2727 7.49263 11.455 7.44567 11.6375 7.46102C11.7272 7.46033 11.8162 7.47485 11.8993 7.50374C11.9824 7.53263 12.0581 7.57532 12.1218 7.62936C12.1856 7.68339 12.2363 7.7477 12.2709 7.81858C12.3056 7.88946 12.3235 7.96552 12.3237 8.04236L12.0194 12.8652C11.9999 13.0216 11.9089 13.165 11.7664 13.2641C11.6239 13.3632 11.4414 13.4101 11.2587 13.3944C11.169 13.3951 11.08 13.3805 10.9969 13.3517C10.9138 13.3228 10.8382 13.2801 10.7744 13.226C10.7106 13.172 10.6599 13.1077 10.6253 13.0368C10.5906 12.9659 10.5727 12.8899 10.5725 12.813L10.8768 7.99022ZM3.8049 8.04236C3.8049 7.96558 3.82265 7.88956 3.85713 7.81868C3.89161 7.74781 3.94214 7.68349 4.0058 7.62944C4.06946 7.57538 4.14499 7.53267 4.22802 7.50377C4.31105 7.47486 4.39995 7.46033 4.48957 7.46102C4.67216 7.44567 4.85445 7.49263 4.99687 7.59171C5.13929 7.69079 5.23037 7.83398 5.25032 7.99022L5.55462 12.813C5.55442 12.8899 5.53648 12.9659 5.50183 13.0368C5.46718 13.1077 5.41651 13.172 5.35273 13.226C5.28895 13.2801 5.21333 13.3228 5.13021 13.3517C5.04709 13.3805 4.95812 13.3951 4.86842 13.3944C4.68576 13.4101 4.50325 13.3632 4.36074 13.2641C4.21822 13.165 4.12725 13.0216 4.10768 12.8652L3.80338 8.04236H3.8049Z" fill="#EC4646"/>
</svg>
