<svg width="28" height="28" viewBox="0 0 28 28" fill="none" xmlns="http://www.w3.org/2000/svg">
<path fill-rule="evenodd" clip-rule="evenodd" d="M19.1725 16.0258L18.0206 16.949C17.9281 17.0231 17.864 17.127 17.8391 17.2431L16.526 23.3796C16.0978 25.3811 13.9782 26.5185 12.0778 25.7665C10.8153 25.2669 9.98574 24.0451 9.98574 22.6853V19.0062H9.48646C7.30677 19.0062 5.40593 18.3896 4.04716 17.0662C2.68361 15.7381 1.99717 13.8262 1.99717 11.5034L1.99717 10.503C1.99717 8.18023 2.68361 6.26827 4.04717 4.94021C5.40594 3.61681 7.30677 3.00024 9.48646 3.00024L19.1547 3.00024C19.4502 2.65327 19.8276 2.37888 20.2584 2.20545C20.5629 2.08288 20.8685 2.03871 21.1686 2.01874C21.4528 1.99984 21.7951 1.99985 22.1876 1.99986H22.2488C22.6413 1.99985 22.9837 1.99984 23.2678 2.01874C23.568 2.03871 23.8736 2.08288 24.1781 2.20545C24.8979 2.49521 25.4684 3.06678 25.7577 3.78789C25.88 4.09292 25.9241 4.39906 25.944 4.69977C25.9629 4.98444 25.9629 5.32733 25.9629 5.72057V13.2847C25.9629 13.6779 25.9629 14.0209 25.944 14.3056C25.9241 14.6063 25.88 14.9124 25.7577 15.2174C25.4684 15.9385 24.8979 16.5101 24.1781 16.7999C23.8736 16.9224 23.568 16.9666 23.2678 16.9866C22.9837 17.0055 22.6414 17.0055 22.2488 17.0055H22.1877C21.7951 17.0055 21.4528 17.0055 21.1686 16.9866C20.8685 16.9666 20.5629 16.9224 20.2584 16.7999C19.8362 16.6299 19.4653 16.363 19.1725 16.0258ZM14.5733 22.9603C14.4036 23.753 13.5641 24.2035 12.8115 23.9056C12.3114 23.7077 11.9829 23.2239 11.9829 22.6853L11.9829 18.0058C11.9829 17.4534 11.5358 17.0055 10.9843 17.0055H9.48646C7.67187 17.0055 6.32735 16.4966 5.43933 15.6317C4.5561 14.7715 3.99432 13.4322 3.99432 11.5034L3.99432 10.503C3.99432 8.57421 4.5561 7.23497 5.43932 6.37474C6.32734 5.50983 7.67186 5.00099 9.48646 5.00099L18.4792 5.00099C18.4736 5.21674 18.4736 5.45741 18.4736 5.72064L18.4736 13.2847C18.4736 13.5539 18.4736 13.7994 18.4796 14.0189L16.773 15.3866C16.3209 15.749 16.0077 16.2566 15.8863 16.8238L14.5733 22.9603ZM23.4334 14.9434C23.4064 14.9543 23.3369 14.9768 23.1355 14.9902C22.9255 15.0042 22.6502 15.0047 22.2182 15.0047C21.7863 15.0047 21.511 15.0042 21.301 14.9902C21.0996 14.9768 21.0301 14.9543 21.0031 14.9434C20.7884 14.857 20.6182 14.6865 20.532 14.4714C20.5211 14.4444 20.4986 14.3747 20.4852 14.173C20.4713 13.9626 20.4707 13.6868 20.4707 13.2541L20.4707 5.75126C20.4707 5.31853 20.4713 5.04272 20.4852 4.83233C20.4986 4.63059 20.5211 4.56097 20.532 4.53388C20.6182 4.31881 20.7884 4.14834 21.0031 4.06192C21.0301 4.05104 21.0996 4.02849 21.301 4.01509C21.511 4.00112 21.7863 4.00061 22.2182 4.00061C22.6502 4.00061 22.9255 4.00112 23.1355 4.01509C23.3369 4.02849 23.4064 4.05104 23.4334 4.06192C23.6481 4.14834 23.8183 4.31881 23.9045 4.53388C23.9154 4.56097 23.9379 4.63059 23.9513 4.83233C23.9652 5.04272 23.9657 5.31853 23.9657 5.75126L23.9657 13.2541C23.9657 13.6868 23.9652 13.9626 23.9513 14.173C23.9379 14.3747 23.9154 14.4444 23.9045 14.4714C23.8183 14.6865 23.6481 14.857 23.4334 14.9434Z" fill="#6369D1"/>
</svg>
