<svg width="16" height="16" viewBox="0 0 16 16" fill="none" xmlns="http://www.w3.org/2000/svg">
<path d="M0.88144 15.9956C0.759633 15.9954 0.639203 15.9699 0.527807 15.9206C0.416411 15.8713 0.316488 15.7994 0.23439 15.7094C0.150808 15.6202 0.087029 15.5143 0.0472361 15.3987C0.00744312 15.2831 -0.00746497 15.1604 0.00348907 15.0387L0.218587 12.6735L10.1552 2.74033L13.2605 5.84477L3.32653 15.777L0.961333 15.9921C0.934773 15.9946 0.908112 15.9957 0.88144 15.9956V15.9956ZM13.8804 5.22406L10.7759 2.11962L12.6381 0.257491C12.7196 0.175863 12.8164 0.111106 12.923 0.0669235C13.0296 0.0227413 13.1438 0 13.2592 0C13.3746 0 13.4888 0.0227413 13.5954 0.0669235C13.702 0.111106 13.7988 0.175863 13.8804 0.257491L15.7425 2.11962C15.8241 2.20116 15.8889 2.29799 15.9331 2.40457C15.9773 2.51115 16 2.6254 16 2.74077C16 2.85615 15.9773 2.9704 15.9331 3.07698C15.8889 3.18356 15.8241 3.28039 15.7425 3.36192L13.8813 5.22318L13.8804 5.22406V5.22406Z" fill="#6369D1"/>
</svg>
