<svg width="648" height="633" viewBox="0 0 648 633" fill="none" xmlns="http://www.w3.org/2000/svg">
<g clip-path="url(#clip0_1710_6109)">
<path d="M411.146 142.174H236.636C232.659 142.179 228.847 143.761 226.035 146.573C223.223 149.385 221.641 153.197 221.636 157.174V545.024L219.636 545.634L176.826 558.744C174.797 559.362 172.606 559.151 170.733 558.155C168.86 557.16 167.459 555.462 166.836 553.434L39.4961 137.484C38.8763 135.455 39.0876 133.263 40.0833 131.39C41.079 129.516 42.7777 128.115 44.8061 127.494L110.776 107.294L302.026 48.7538L367.996 28.5538C369 28.2448 370.055 28.1368 371.101 28.236C372.146 28.3353 373.162 28.6397 374.09 29.132C375.018 29.6243 375.84 30.2947 376.508 31.1049C377.177 31.9152 377.679 32.8493 377.986 33.8538L410.536 140.174L411.146 142.174Z" fill="#F2F2F2"/>
<path d="M449.226 140.174L409.996 12.0339C409.344 9.89882 408.277 7.9133 406.856 6.19077C405.436 4.46825 403.69 3.04249 401.718 1.99494C399.747 0.947401 397.588 0.298606 395.366 0.0856568C393.143 -0.127292 390.901 0.0997786 388.766 0.75387L296.016 29.1439L104.776 87.6939L12.0265 116.094C7.71782 117.417 4.1101 120.395 1.99524 124.376C-0.119617 128.356 -0.568843 133.013 0.746189 137.324L134.826 575.254C135.895 578.734 138.05 581.78 140.977 583.945C143.903 586.11 147.446 587.28 151.087 587.284C152.771 587.285 154.447 587.032 156.056 586.534L219.636 567.074L221.636 566.454V564.364L219.636 564.974L155.466 584.624C151.663 585.783 147.555 585.387 144.044 583.521C140.533 581.656 137.905 578.474 136.736 574.674L2.6666 136.734C2.08769 134.851 1.88592 132.872 2.07285 130.911C2.25977 128.95 2.8317 127.045 3.75592 125.305C4.68014 123.565 5.9385 122.025 7.4589 120.772C8.97929 119.519 10.7319 118.578 12.6163 118.004L105.366 89.6039L296.607 31.0639L389.357 2.66389C390.786 2.22769 392.272 2.00528 393.766 2.00388C396.973 2.01109 400.094 3.04504 402.671 4.95431C405.248 6.86358 407.146 9.54782 408.087 12.6139L447.136 140.174L447.756 142.174H449.837L449.226 140.174Z" fill="#3F3D56"/>
<path d="M122.681 127.821C120.754 127.819 118.877 127.2 117.327 126.055C115.778 124.909 114.636 123.296 114.07 121.454L101.189 79.3824C100.843 78.2523 100.723 77.065 100.836 75.8885C100.949 74.7119 101.292 73.5691 101.846 72.5254C102.401 71.4816 103.156 70.5572 104.067 69.8052C104.979 69.0531 106.03 68.488 107.16 68.1421L283.099 14.2784C285.382 13.5819 287.847 13.8194 289.955 14.9388C292.062 16.0582 293.639 17.968 294.34 20.2491L307.221 62.3213C307.917 64.6037 307.679 67.069 306.559 69.1763C305.44 71.2836 303.531 72.8609 301.25 73.5621L125.31 127.426C124.458 127.687 123.572 127.82 122.681 127.821V127.821Z" fill="#6C63FF"/>
<path d="M190.154 44.9546C201.199 44.9546 210.154 36.0003 210.154 24.9546C210.154 13.9089 201.199 4.95459 190.154 4.95459C179.108 4.95459 170.154 13.9089 170.154 24.9546C170.154 36.0003 179.108 44.9546 190.154 44.9546Z" fill="#6C63FF"/>
<path d="M190.153 37.6193C197.148 37.6193 202.818 31.9491 202.818 24.9547C202.818 17.9602 197.148 12.29 190.153 12.29C183.159 12.29 177.489 17.9602 177.489 24.9547C177.489 31.9491 183.159 37.6193 190.153 37.6193Z" fill="white"/>
<path d="M602.636 582.174H264.636C262.383 582.171 260.222 581.275 258.629 579.681C257.035 578.088 256.139 575.927 256.136 573.674V168.674C256.139 166.42 257.035 164.26 258.629 162.666C260.222 161.073 262.383 160.176 264.636 160.174H602.636C604.89 160.176 607.05 161.073 608.644 162.666C610.237 164.26 611.134 166.42 611.136 168.674V573.674C611.134 575.927 610.237 578.088 608.644 579.681C607.05 581.275 604.89 582.171 602.636 582.174V582.174Z" fill="#E6E6E6"/>
<path d="M447.136 140.174H236.636C232.13 140.18 227.809 141.973 224.622 145.16C221.436 148.347 219.643 152.667 219.636 157.174V564.974L221.636 564.364V157.174C221.641 153.197 223.223 149.385 226.035 146.573C228.847 143.761 232.659 142.179 236.636 142.174H447.756L447.136 140.174ZM630.636 140.174H236.636C232.13 140.18 227.809 141.973 224.622 145.16C221.436 148.347 219.643 152.667 219.636 157.174V615.174C219.643 619.681 221.436 624.001 224.622 627.188C227.809 630.374 232.13 632.167 236.636 632.174H630.636C635.143 632.167 639.463 630.374 642.65 627.188C645.837 624.001 647.63 619.681 647.636 615.174V157.174C647.63 152.667 645.837 148.347 642.65 145.16C639.463 141.973 635.143 140.18 630.636 140.174V140.174ZM645.636 615.174C645.631 619.151 644.049 622.963 641.237 625.775C638.425 628.587 634.613 630.169 630.636 630.174H236.636C232.659 630.169 228.847 628.587 226.035 625.775C223.223 622.963 221.641 619.151 221.636 615.174V157.174C221.641 153.197 223.223 149.385 226.035 146.573C228.847 143.761 232.659 142.179 236.636 142.174H630.636C634.613 142.179 638.425 143.761 641.237 146.573C644.049 149.385 645.631 153.197 645.636 157.174V615.174Z" fill="#3F3D56"/>
<path d="M525.636 184.174H341.636C339.25 184.171 336.963 183.222 335.275 181.535C333.588 179.848 332.639 177.56 332.636 175.174V131.174C332.639 128.788 333.588 126.5 335.276 124.813C336.963 123.126 339.25 122.177 341.636 122.174H525.636C528.023 122.177 530.31 123.126 531.997 124.813C533.685 126.5 534.634 128.788 534.636 131.174V175.174C534.634 177.56 533.685 179.848 531.997 181.535C530.31 183.222 528.023 184.171 525.636 184.174V184.174Z" fill="#6C63FF"/>
<path d="M433.636 125.174C444.682 125.174 453.636 116.22 453.636 105.174C453.636 94.1281 444.682 85.1738 433.636 85.1738C422.591 85.1738 413.636 94.1281 413.636 105.174C413.636 116.22 422.591 125.174 433.636 125.174Z" fill="#6C63FF"/>
<path d="M433.636 117.356C440.364 117.356 445.818 111.902 445.818 105.174C445.818 98.446 440.364 92.9919 433.636 92.9919C426.908 92.9919 421.454 98.446 421.454 105.174C421.454 111.902 426.908 117.356 433.636 117.356Z" fill="white"/>
<path d="M388.254 356H392.654L393.694 353.44L383.614 332.08H388.414L393.534 343.08L395.734 348.24H395.894L397.774 343L402.134 332.08H406.654L396.854 356.28C396.56 357 396.254 357.6 395.934 358.08C395.614 358.56 395.24 358.947 394.814 359.24C394.387 359.507 393.88 359.707 393.294 359.84C392.734 359.947 392.054 360 391.254 360H388.254V356ZM408.671 339.2H425.751V360H421.391V342.76H413.031V360H408.671V339.2ZM440.031 360.48C438.538 360.48 437.204 360.227 436.031 359.72C434.858 359.213 433.871 358.493 433.071 357.56C432.271 356.6 431.658 355.453 431.231 354.12C430.804 352.76 430.591 351.253 430.591 349.6C430.591 347.947 430.804 346.453 431.231 345.12C431.658 343.76 432.271 342.613 433.071 341.68C433.871 340.72 434.858 339.987 436.031 339.48C437.204 338.973 438.538 338.72 440.031 338.72C442.111 338.72 443.818 339.187 445.151 340.12C446.484 341.053 447.458 342.293 448.071 343.84L444.471 345.52C444.178 344.56 443.658 343.8 442.911 343.24C442.191 342.653 441.231 342.36 440.031 342.36C438.431 342.36 437.218 342.867 436.391 343.88C435.591 344.867 435.191 346.16 435.191 347.76V351.48C435.191 353.08 435.591 354.387 436.391 355.4C437.218 356.387 438.431 356.88 440.031 356.88C441.311 356.88 442.324 356.573 443.071 355.96C443.844 355.32 444.458 354.48 444.911 353.44L448.231 355.2C447.538 356.907 446.498 358.213 445.111 359.12C443.724 360.027 442.031 360.48 440.031 360.48ZM455.062 360.48C454.075 360.48 453.342 360.227 452.862 359.72C452.382 359.187 452.142 358.533 452.142 357.76V357.16C452.142 356.387 452.382 355.747 452.862 355.24C453.342 354.707 454.075 354.44 455.062 354.44C456.048 354.44 456.782 354.707 457.262 355.24C457.742 355.747 457.982 356.387 457.982 357.16V357.76C457.982 358.533 457.742 359.187 457.262 359.72C456.782 360.227 456.048 360.48 455.062 360.48ZM466.663 360.48C465.677 360.48 464.943 360.227 464.463 359.72C463.983 359.187 463.743 358.533 463.743 357.76V357.16C463.743 356.387 463.983 355.747 464.463 355.24C464.943 354.707 465.677 354.44 466.663 354.44C467.65 354.44 468.383 354.707 468.863 355.24C469.343 355.747 469.583 356.387 469.583 357.16V357.76C469.583 358.533 469.343 359.187 468.863 359.72C468.383 360.227 467.65 360.48 466.663 360.48ZM478.265 360.48C477.278 360.48 476.545 360.227 476.065 359.72C475.585 359.187 475.345 358.533 475.345 357.76V357.16C475.345 356.387 475.585 355.747 476.065 355.24C476.545 354.707 477.278 354.44 478.265 354.44C479.252 354.44 479.985 354.707 480.465 355.24C480.945 355.747 481.185 356.387 481.185 357.16V357.76C481.185 358.533 480.945 359.187 480.465 359.72C479.985 360.227 479.252 360.48 478.265 360.48ZM352.847 388.08V412H348.327V388.08H340.007V384.08H361.167V388.08H352.847ZM376.568 391.2H380.768L372.008 416.12C371.768 416.813 371.488 417.4 371.168 417.88C370.874 418.387 370.514 418.787 370.088 419.08C369.688 419.4 369.194 419.627 368.608 419.76C368.021 419.92 367.328 420 366.528 420H364.008V416.44H367.528L368.728 412.92L361.168 391.2H365.528L369.688 403.44L370.888 407.96H371.088L372.408 403.44L376.568 391.2ZM389.065 394.76H382.425V391.2H400.065V394.76H393.425V412H389.065V394.76ZM413.456 391.2H430.536V412H426.176V394.76H417.816V412H413.456V391.2ZM449.536 391.2H453.736L444.976 416.12C444.736 416.813 444.456 417.4 444.136 417.88C443.843 418.387 443.483 418.787 443.056 419.08C442.656 419.4 442.163 419.627 441.576 419.76C440.99 419.92 440.296 420 439.496 420H436.976V416.44H440.496L441.696 412.92L434.136 391.2H438.496L442.656 403.44L443.856 407.96H444.056L445.376 403.44L449.536 391.2ZM465.129 412.48C463.635 412.48 462.302 412.227 461.129 411.72C459.955 411.213 458.969 410.493 458.169 409.56C457.369 408.6 456.755 407.453 456.329 406.12C455.902 404.76 455.689 403.253 455.689 401.6C455.689 399.947 455.902 398.453 456.329 397.12C456.755 395.76 457.369 394.613 458.169 393.68C458.969 392.72 459.955 391.987 461.129 391.48C462.302 390.973 463.635 390.72 465.129 390.72C467.209 390.72 468.915 391.187 470.249 392.12C471.582 393.053 472.555 394.293 473.169 395.84L469.569 397.52C469.275 396.56 468.755 395.8 468.009 395.24C467.289 394.653 466.329 394.36 465.129 394.36C463.529 394.36 462.315 394.867 461.489 395.88C460.689 396.867 460.289 398.16 460.289 399.76V403.48C460.289 405.08 460.689 406.387 461.489 407.4C462.315 408.387 463.529 408.88 465.129 408.88C466.409 408.88 467.422 408.573 468.169 407.96C468.942 407.32 469.555 406.48 470.009 405.44L473.329 407.2C472.635 408.907 471.595 410.213 470.209 411.12C468.822 412.027 467.129 412.48 465.129 412.48ZM482.034 394.76H475.394V391.2H493.034V394.76H486.394V412H482.034V394.76ZM504.741 412.48C503.301 412.48 501.981 412.227 500.781 411.72C499.608 411.213 498.608 410.493 497.781 409.56C496.954 408.6 496.314 407.453 495.861 406.12C495.408 404.76 495.181 403.253 495.181 401.6C495.181 399.947 495.408 398.453 495.861 397.12C496.314 395.76 496.954 394.613 497.781 393.68C498.608 392.72 499.608 391.987 500.781 391.48C501.981 390.973 503.301 390.72 504.741 390.72C506.181 390.72 507.488 390.973 508.661 391.48C509.861 391.987 510.874 392.72 511.701 393.68C512.528 394.613 513.168 395.76 513.621 397.12C514.074 398.453 514.301 399.947 514.301 401.6C514.301 403.253 514.074 404.76 513.621 406.12C513.168 407.453 512.528 408.6 511.701 409.56C510.874 410.493 509.861 411.213 508.661 411.72C507.488 412.227 506.181 412.48 504.741 412.48ZM504.741 408.88C506.234 408.88 507.434 408.427 508.341 407.52C509.248 406.587 509.701 405.2 509.701 403.36V399.84C509.701 398 509.248 396.627 508.341 395.72C507.434 394.787 506.234 394.32 504.741 394.32C503.248 394.32 502.048 394.787 501.141 395.72C500.234 396.627 499.781 398 499.781 399.84V403.36C499.781 405.2 500.234 406.587 501.141 407.52C502.048 408.427 503.248 408.88 504.741 408.88ZM520.999 404L519.599 392.04V384.08H524.319V392.04L522.999 404H520.999ZM521.999 412.48C520.986 412.48 520.239 412.24 519.759 411.76C519.306 411.253 519.079 410.613 519.079 409.84V409.16C519.079 408.387 519.306 407.76 519.759 407.28C520.239 406.773 520.986 406.52 521.999 406.52C523.012 406.52 523.746 406.773 524.199 407.28C524.679 407.76 524.919 408.387 524.919 409.16V409.84C524.919 410.613 524.679 411.253 524.199 411.76C523.746 412.24 523.012 412.48 521.999 412.48Z" fill="#333333"/>
</g>
<defs>
<clipPath id="clip0_1710_6109">
<rect width="647.636" height="632.174" fill="white"/>
</clipPath>
</defs>
</svg>
