<svg width="88" height="53" viewBox="0 0 91 53" fill="none" xmlns="http://www.w3.org/2000/svg">
<path d="M55.2915 7.09534C54.6992 6.43072 53.996 5.90358 53.222 5.54405C52.4481 5.18452 51.6186 4.99965 50.7809 5C49.9432 5.00035 49.1139 5.18592 48.3402 5.54611C47.5665 5.90629 46.8636 6.43402 46.2717 7.09915L45.4991 7.97663L44.733 7.10105L44.728 7.09546C44.136 6.43114 43.4331 5.90418 42.6596 5.54465C41.8861 5.18513 41.057 5.00009 40.2198 5.00009C39.3825 5.00009 38.5534 5.18513 37.7799 5.54465C37.0064 5.90418 36.3036 6.43114 35.7115 7.09546L35.3674 7.48166C34.1717 8.82329 33.5 10.6429 33.5 12.5403C33.5 14.4376 34.1717 16.2573 35.3674 17.5989L44.4512 27.7917L45.477 28.9977L45.5015 28.9702L45.528 29L46.4891 27.8621L55.6357 17.5987C56.8295 16.256 57.5 14.4368 57.5 12.5401C57.5 10.6434 56.8295 8.82419 55.6357 7.48149L55.2915 7.09534ZM54.5084 16.3341L45.5015 26.4409L36.4943 16.3341C35.5976 15.3279 35.0938 13.9631 35.0938 12.5401C35.0938 11.1171 35.5976 9.75241 36.4943 8.74618L36.8386 8.35998C37.7349 7.35426 38.9504 6.78901 40.2179 6.78848C41.4855 6.78794 42.7013 7.35216 43.5983 8.35713L45.4957 10.525L47.4021 8.35998C47.8461 7.86174 48.3732 7.46652 48.9534 7.19688C49.5335 6.92723 50.1553 6.78845 50.7832 6.78845C51.4112 6.78845 52.033 6.92723 52.6131 7.19688C53.1933 7.46652 53.7204 7.86174 54.1644 8.35998L54.5086 8.74613C55.404 9.75318 55.9068 11.1176 55.9068 12.5402C55.9067 13.9627 55.4038 15.3271 54.5084 16.3341Z" fill="#333333"/>
<path d="M6.21755 33.0909H7.84752V41.1023H7.94873L13.4992 33.0909H15.0226V44H13.3766V35.9993H13.2754L7.73566 44H6.21755V33.0909ZM16.811 41.8374H18.441C18.4623 42.1712 18.6132 42.4286 18.8938 42.6097C19.1779 42.7908 19.5454 42.8814 19.9964 42.8814C20.4545 42.8814 20.8451 42.7837 21.1683 42.5884C21.4914 42.3896 21.653 42.0824 21.653 41.6669C21.653 41.4183 21.5909 41.2017 21.4666 41.017C21.3458 40.8288 21.1736 40.6832 20.9499 40.5803C20.7297 40.4773 20.4687 40.4258 20.1669 40.4258H18.8352V39.174H20.1669C20.6179 39.174 20.9552 39.071 21.1789 38.8651C21.4027 38.6591 21.5145 38.4016 21.5145 38.0927C21.5145 37.7589 21.3938 37.4908 21.1523 37.2884C20.9144 37.0824 20.5823 36.9794 20.1562 36.9794C19.723 36.9794 19.3625 37.0771 19.0749 37.2724C18.7872 37.4641 18.6363 37.7127 18.6221 38.0181H17.0134C17.0241 37.56 17.1626 37.1587 17.4289 36.8143C17.6988 36.4663 18.061 36.1964 18.5156 36.0046C18.9737 35.8093 19.4939 35.7116 20.0763 35.7116C20.6835 35.7116 21.2091 35.8093 21.653 36.0046C22.0969 36.1999 22.4396 36.4698 22.6811 36.8143C22.9261 37.1587 23.0486 37.5547 23.0486 38.0021C23.0486 38.4531 22.9137 38.8224 22.6438 39.1101C22.3774 39.3942 22.0294 39.5984 21.5997 39.7227V39.8079C21.9158 39.8292 22.1963 39.9251 22.4414 40.0955C22.6864 40.266 22.8782 40.4915 23.0166 40.772C23.1551 41.0526 23.2244 41.3704 23.2244 41.7255C23.2244 42.2262 23.0859 42.6594 22.8089 43.0252C22.5355 43.391 22.1555 43.6733 21.669 43.8722C21.186 44.0675 20.6338 44.1651 20.0124 44.1651C19.4087 44.1651 18.8671 44.071 18.3877 43.8828C17.9119 43.6911 17.5337 43.4212 17.2532 43.0732C16.9762 42.7251 16.8288 42.3132 16.811 41.8374ZM31.1812 32.7713L31.8417 33.7781C31.5966 34.0018 31.3179 34.1616 31.0054 34.2575C30.6964 34.3498 30.3395 34.4084 29.9347 34.4332C29.5299 34.4545 29.0665 34.4741 28.5444 34.4918C27.9549 34.5096 27.4702 34.6374 27.0902 34.8754C26.7103 35.1097 26.4173 35.4577 26.2113 35.9194C26.0089 36.3775 25.8775 36.9528 25.8172 37.6452H25.9184C26.1847 37.1374 26.554 36.7575 27.0263 36.5053C27.5022 36.2532 28.0366 36.1271 28.6297 36.1271C29.2902 36.1271 29.8779 36.2781 30.3928 36.5799C30.9077 36.8817 31.3125 37.3239 31.6073 37.9062C31.9056 38.4851 32.0547 39.1935 32.0547 40.0316C32.0547 40.8803 31.8985 41.6136 31.586 42.2315C31.277 42.8494 30.8402 43.3271 30.2756 43.6644C29.7145 43.9982 29.0522 44.1651 28.2888 44.1651C27.5253 44.1651 26.8594 43.9929 26.2912 43.6484C25.7266 43.3004 25.288 42.7855 24.9755 42.1037C24.6666 41.4219 24.5121 40.5803 24.5121 39.5788V38.7692C24.5121 36.8977 24.8459 35.4897 25.5135 34.5451C26.1812 33.6005 27.179 33.1158 28.5071 33.0909C28.9368 33.0803 29.3204 33.0785 29.6577 33.0856C29.9951 33.0891 30.2898 33.0732 30.5419 33.0376C30.7976 32.9986 31.0107 32.9098 31.1812 32.7713ZM28.2941 42.8281C28.738 42.8281 29.1197 42.7163 29.4393 42.4925C29.7625 42.2653 30.0111 41.9439 30.1851 41.5284C30.3591 41.1129 30.4461 40.6229 30.4461 40.0582C30.4461 39.5043 30.3591 39.0337 30.1851 38.6467C30.0111 38.2596 29.7625 37.9648 29.4393 37.7624C29.1162 37.5565 28.7291 37.4535 28.2781 37.4535C27.9443 37.4535 27.646 37.5121 27.3832 37.6293C27.1204 37.7429 26.8949 37.9116 26.7067 38.1353C26.5221 38.359 26.3782 38.6325 26.2753 38.9556C26.1758 39.2752 26.1226 39.6428 26.1155 40.0582C26.1155 40.9034 26.309 41.5763 26.6961 42.0771C27.0867 42.5778 27.6194 42.8281 28.2941 42.8281ZM33.8339 47.0682V35.8182H35.3892V37.1445H35.5224C35.6147 36.9741 35.7479 36.777 35.9219 36.5533C36.0959 36.3295 36.3374 36.1342 36.6464 35.9673C36.9553 35.7969 37.3637 35.7116 37.8715 35.7116C38.532 35.7116 39.1215 35.8786 39.64 36.2124C40.1584 36.5462 40.565 37.0273 40.8598 37.6559C41.1581 38.2844 41.3072 39.0408 41.3072 39.9251C41.3072 40.8093 41.1598 41.5675 40.8651 42.1996C40.5704 42.8281 40.1655 43.3129 39.6506 43.6538C39.1357 43.9911 38.548 44.1598 37.8875 44.1598C37.3903 44.1598 36.9837 44.0763 36.6677 43.9094C36.3552 43.7425 36.1101 43.5472 35.9326 43.3235C35.755 43.0998 35.6183 42.9009 35.5224 42.7269H35.4265V47.0682H33.8339ZM35.3946 39.9091C35.3946 40.4844 35.478 40.9886 35.6449 41.4219C35.8118 41.8551 36.0533 42.1942 36.3694 42.4393C36.6854 42.6808 37.0725 42.8015 37.5306 42.8015C38.0064 42.8015 38.4042 42.6754 38.7238 42.4233C39.0434 42.1676 39.2848 41.8214 39.4482 41.3846C39.6151 40.9478 39.6986 40.456 39.6986 39.9091C39.6986 39.3693 39.6169 38.8846 39.4535 38.4549C39.2937 38.0252 39.0522 37.6861 38.7291 37.4375C38.4095 37.1889 38.01 37.0646 37.5306 37.0646C37.0689 37.0646 36.6783 37.1836 36.3587 37.4215C36.0427 37.6594 35.803 37.9915 35.6396 38.4176C35.4763 38.8437 35.3946 39.3409 35.3946 39.9091ZM45.4727 44.1811C44.9542 44.1811 44.4855 44.0852 44.0665 43.8935C43.6474 43.6982 43.3154 43.4158 43.0704 43.0465C42.8289 42.6772 42.7081 42.2244 42.7081 41.6882C42.7081 41.2266 42.7969 40.8466 42.9745 40.5483C43.152 40.25 43.3917 40.0138 43.6936 39.8398C43.9954 39.6658 44.3328 39.5344 44.7057 39.4457C45.0785 39.3569 45.4585 39.2894 45.8456 39.2433C46.3356 39.1864 46.7334 39.1403 47.0388 39.1048C47.3441 39.0657 47.5661 39.0036 47.7046 38.9183C47.8431 38.8331 47.9123 38.6946 47.9123 38.5028V38.4656C47.9123 38.0004 47.7809 37.6399 47.5182 37.3842C47.2589 37.1286 46.8718 37.0007 46.3569 37.0007C45.8207 37.0007 45.3981 37.1197 45.0892 37.3576C44.7838 37.592 44.5725 37.853 44.4553 38.1406L42.9585 37.7997C43.1361 37.3026 43.3953 36.9013 43.7362 36.5959C44.0807 36.2869 44.4766 36.0632 44.9241 35.9247C45.3715 35.7827 45.842 35.7116 46.3356 35.7116C46.6623 35.7116 47.0086 35.7507 47.3743 35.8288C47.7437 35.9034 48.0881 36.0419 48.4077 36.2443C48.7309 36.4467 48.9954 36.7362 49.2014 37.1126C49.4074 37.4854 49.5103 37.9702 49.5103 38.5668V44H47.9549V42.8814H47.891C47.788 43.0874 47.6336 43.2898 47.4276 43.4886C47.2216 43.6875 46.9571 43.8526 46.6339 43.984C46.3108 44.1154 45.9237 44.1811 45.4727 44.1811ZM45.8189 42.9027C46.2593 42.9027 46.6357 42.8157 46.9482 42.6417C47.2642 42.4677 47.504 42.2404 47.6673 41.9599C47.8342 41.6758 47.9177 41.3722 47.9177 41.049V39.9943C47.8608 40.0511 47.7508 40.1044 47.5874 40.1541C47.4276 40.2003 47.2447 40.2411 47.0388 40.2766C46.8328 40.3086 46.6321 40.3388 46.4368 40.3672C46.2415 40.392 46.0782 40.4134 45.9468 40.4311C45.6378 40.4702 45.3555 40.5359 45.0998 40.6282C44.8477 40.7205 44.6453 40.8537 44.4926 41.0277C44.3434 41.1982 44.2689 41.4254 44.2689 41.7095C44.2689 42.1037 44.4145 42.402 44.7057 42.6044C44.9968 42.8033 45.3679 42.9027 45.8189 42.9027ZM57.1768 39.2219V40.6016H52.745V39.2219H57.1768ZM53.1924 35.8182V44H51.6317V35.8182H53.1924ZM58.2901 35.8182V44H56.7347V35.8182H58.2901ZM65.9659 39.2219V40.6016H61.534V39.2219H65.9659ZM61.9815 35.8182V44H60.4208V35.8182H61.9815ZM67.0791 35.8182V44H65.5237V35.8182H67.0791ZM72.6562 44.1651C71.8892 44.1651 71.2198 43.9893 70.648 43.6378C70.0763 43.2862 69.6324 42.7944 69.3164 42.1623C69.0003 41.5302 68.8423 40.7915 68.8423 39.9464C68.8423 39.0977 69.0003 38.3555 69.3164 37.7198C69.6324 37.0842 70.0763 36.5906 70.648 36.239C71.2198 35.8874 71.8892 35.7116 72.6562 35.7116C73.4233 35.7116 74.0926 35.8874 74.6644 36.239C75.2361 36.5906 75.68 37.0842 75.996 37.7198C76.3121 38.3555 76.4701 39.0977 76.4701 39.9464C76.4701 40.7915 76.3121 41.5302 75.996 42.1623C75.68 42.7944 75.2361 43.2862 74.6644 43.6378C74.0926 43.9893 73.4233 44.1651 72.6562 44.1651ZM72.6615 42.8281C73.1587 42.8281 73.5706 42.6967 73.8973 42.4339C74.224 42.1712 74.4655 41.8214 74.6218 41.3846C74.7816 40.9478 74.8615 40.4666 74.8615 39.9411C74.8615 39.419 74.7816 38.9396 74.6218 38.5028C74.4655 38.0625 74.224 37.7092 73.8973 37.4428C73.5706 37.1765 73.1587 37.0433 72.6615 37.0433C72.1608 37.0433 71.7453 37.1765 71.4151 37.4428C71.0884 37.7092 70.8451 38.0625 70.6853 38.5028C70.5291 38.9396 70.451 39.419 70.451 39.9411C70.451 40.4666 70.5291 40.9478 70.6853 41.3846C70.8451 41.8214 71.0884 42.1712 71.4151 42.4339C71.7453 42.6967 72.1608 42.8281 72.6615 42.8281ZM81.7742 44.1651C80.9681 44.1651 80.2738 43.9929 79.6915 43.6484C79.1126 43.3004 78.6652 42.8121 78.3491 42.1836C78.0366 41.5515 77.8804 40.8111 77.8804 39.9624C77.8804 39.1243 78.0366 38.3857 78.3491 37.7464C78.6652 37.1072 79.1055 36.6083 79.6701 36.2496C80.2383 35.891 80.9024 35.7116 81.6623 35.7116C82.124 35.7116 82.5714 35.788 83.0047 35.9407C83.4379 36.0934 83.8267 36.3331 84.1712 36.6598C84.5157 36.9865 84.7873 37.4109 84.9862 37.9329C85.1851 38.4513 85.2845 39.0817 85.2845 39.8239V40.3885H78.7806V39.1953H83.7238C83.7238 38.7763 83.6385 38.4052 83.4681 38.082C83.2976 37.7553 83.0579 37.4979 82.749 37.3097C82.4436 37.1214 82.0849 37.0273 81.673 37.0273C81.2255 37.0273 80.8349 37.1374 80.5011 37.3576C80.1709 37.5742 79.9152 37.8583 79.7341 38.2099C79.5565 38.5579 79.4677 38.9361 79.4677 39.3445V40.2766C79.4677 40.8235 79.5636 41.2887 79.7554 41.6722C79.9507 42.0558 80.2223 42.3487 80.5704 42.5511C80.9184 42.75 81.325 42.8494 81.7902 42.8494C82.092 42.8494 82.3672 42.8068 82.6158 42.7216C82.8644 42.6328 83.0792 42.5014 83.2603 42.3274C83.4415 42.1534 83.5799 41.9386 83.6758 41.6829L85.1833 41.9545C85.0625 42.3984 84.8459 42.7873 84.5334 43.1211C84.2245 43.4513 83.8356 43.7088 83.3669 43.8935C82.9017 44.0746 82.3708 44.1651 81.7742 44.1651Z" fill="#333333"/>
</svg>
