<svg width="16" height="16" viewBox="0 0 16 16" fill="none" xmlns="http://www.w3.org/2000/svg">
<path d="M14.8759 3.33367C14.2617 1.93635 12.9341 0.00120592 10.8759 0.666838C9.8924 0.981738 8.46841 2.0746 7.87592 2.99999C7.28343 2.0746 6.19277 1.31489 5.20925 0.999986C3.14645 0.344516 1.94758 1.60269 1.33332 3.00001C0.47153 4.95626 1.09893 6.61694 2.66666 9.00001C3.89518 10.8648 5.17157 13.0308 7.72028 15.2259C7.80082 15.2955 7.90004 15.3333 8.00219 15.3333C8.10434 15.3333 8.20356 15.2955 8.28411 15.2259C10.8282 13.0359 12.3141 10.2188 13.5426 8.33367C15.1057 5.9506 15.7377 5.28992 14.8759 3.33367Z" fill="#C54A4C"/>
<path d="M14.5277 1.3969C14.1328 0.953813 13.664 0.602385 13.148 0.362699C12.632 0.123012 12.079 -0.000234964 11.5206 3.36287e-07C10.9622 0.000235637 10.4092 0.123949 9.89344 0.36407C9.37763 0.604191 8.90905 0.956014 8.51447 1.39943L7.99941 1.98442L7.48864 1.4007L7.48532 1.39697C7.09063 0.954095 6.62207 0.602786 6.10639 0.363103C5.59071 0.12342 5.03801 5.67646e-05 4.47984 5.67646e-05C3.92167 5.67646e-05 3.36896 0.12342 2.85328 0.363103C2.3376 0.602786 1.86904 0.954095 1.47435 1.39697L1.2449 1.65444C0.447804 2.54886 0 3.76195 0 5.02685C0 6.29175 0.447804 7.50485 1.2449 8.39927L7.30079 15.1945L7.98467 15.9985L8.00098 15.9801L8.01867 16L8.65942 15.2414L14.7571 8.39915C15.553 7.50402 16 6.2912 16 5.02674C16 3.76229 15.553 2.54946 14.7571 1.65433L14.5277 1.3969ZM14.0056 7.55607L8.00098 14.294L1.99622 7.55607C1.3984 6.88525 1.06255 5.97543 1.06255 5.02676C1.06255 4.07809 1.3984 3.16827 1.99622 2.49745L2.22571 2.23999C2.82324 1.5695 3.63357 1.19267 4.47861 1.19232C5.32364 1.19196 6.13422 1.56811 6.7322 2.23809L7.99712 3.6833L9.26805 2.23999C9.56407 1.90783 9.91549 1.64435 10.3022 1.46458C10.689 1.28482 11.1035 1.1923 11.5222 1.1923C11.9408 1.1923 12.3553 1.28482 12.7421 1.46458C13.1288 1.64435 13.4803 1.90783 13.7763 2.23999L14.0057 2.49742C14.6026 3.16879 14.9379 4.07842 14.9378 5.02677C14.9378 5.97512 14.6026 6.88474 14.0056 7.55607Z" fill="#C54A4C"/>
</svg>
