<svg width="28" height="28" viewBox="0 0 28 28" fill="none" xmlns="http://www.w3.org/2000/svg">
<path fill-rule="evenodd" clip-rule="evenodd" d="M8.78747 11.9792L9.93936 11.0564C10.0319 10.9823 10.096 10.8784 10.1208 10.7624L11.4339 4.62816C11.8622 2.62743 13.9818 1.49053 15.8822 2.24225C17.1447 2.74164 17.9742 3.96293 17.9742 5.32228V8.99993H18.4735C20.6532 8.99993 22.554 9.61628 23.9128 10.9392C25.2764 12.2668 25.9628 14.178 25.9628 16.4999V17.4999C25.9628 19.8218 25.2764 21.7331 23.9128 23.0606C22.554 24.3835 20.6532 24.9999 18.4735 24.9999H8.80529C8.50973 25.3467 8.13237 25.621 7.70155 25.7944C7.39707 25.9169 7.09148 25.961 6.79131 25.981C6.50716 25.9999 6.1649 25.9999 5.77238 25.9999H5.71115C5.31862 25.9999 4.97627 25.9999 4.69212 25.981C4.39195 25.961 4.08636 25.9169 3.78188 25.7944C3.06207 25.5047 2.49154 24.9333 2.2023 24.2125C2.07995 23.9076 2.03585 23.6016 2.01592 23.301C1.99705 23.0164 1.99706 22.6737 1.99707 22.2806V14.7193C1.99706 14.3262 1.99705 13.9834 2.01592 13.6988C2.03585 13.3982 2.07995 13.0922 2.2023 12.7873C2.49154 12.0665 3.06207 11.4951 3.78188 11.2054C4.08636 11.0829 4.39195 11.0388 4.69212 11.0188C4.9763 10.9999 5.31859 10.9999 5.71116 10.9999H5.77227C6.16484 10.9999 6.50713 10.9999 6.79131 11.0188C7.09148 11.0388 7.39707 11.0829 7.70155 11.2054C8.12376 11.3753 8.49461 11.6422 8.78747 11.9792ZM13.3867 5.04736C13.5563 4.25494 14.3958 3.80466 15.1485 4.10239C15.6485 4.30018 15.9771 4.78389 15.9771 5.32228V9.99992C15.9771 10.5522 16.4242 10.9999 16.9756 10.9999H18.4735C20.2881 10.9999 21.6326 11.5086 22.5206 12.3732C23.4039 13.2331 23.9656 14.5718 23.9656 16.4999V17.4999C23.9656 19.428 23.4039 20.7667 22.5206 21.6266C21.6326 22.4912 20.2881 22.9999 18.4735 22.9999H9.48072C9.48637 22.7842 9.48637 22.5436 9.48636 22.2805V14.7193C9.48637 14.4502 9.48638 14.2047 9.48033 13.9854L11.187 12.6181C11.639 12.256 11.9523 11.7485 12.0736 11.1816L13.3867 5.04736ZM4.52653 13.0612C4.55356 13.0503 4.62306 13.0278 4.82444 13.0144C5.03446 13.0004 5.30976 12.9999 5.74172 12.9999C6.17367 12.9999 6.44897 13.0004 6.65899 13.0144C6.86037 13.0278 6.92987 13.0503 6.9569 13.0612C7.17158 13.1476 7.34174 13.318 7.42801 13.533C7.43887 13.5601 7.46139 13.6297 7.47476 13.8313C7.4887 14.0416 7.48922 14.3173 7.48922 14.7499V22.2499C7.48922 22.6824 7.4887 22.9582 7.47476 23.1685C7.46139 23.3701 7.43887 23.4397 7.42801 23.4668C7.34174 23.6818 7.17158 23.8522 6.9569 23.9386C6.92987 23.9495 6.86037 23.972 6.65899 23.9854C6.44897 23.9994 6.17367 23.9999 5.74172 23.9999C5.30976 23.9999 5.03446 23.9994 4.82444 23.9854C4.62306 23.972 4.55356 23.9495 4.52653 23.9386C4.31185 23.8522 4.14169 23.6818 4.05542 23.4668C4.04456 23.4397 4.02204 23.3701 4.00867 23.1685C3.99473 22.9582 3.99422 22.6824 3.99422 22.2499V14.7499C3.99422 14.3173 3.99473 14.0416 4.00867 13.8313C4.02204 13.6297 4.04456 13.5601 4.05542 13.533C4.14169 13.318 4.31185 13.1476 4.52653 13.0612Z" fill="#6369D1"/>
</svg>
