<svg width="16" height="16" viewBox="0 0 16 16" fill="none" xmlns="http://www.w3.org/2000/svg">
<path d="M15.0433 2.45908L15.0434 2.45944C15.8932 4.38833 15.5748 6.60664 13.9277 9.11758L13.9269 9.11883C12.6257 11.1155 10.7497 13.1211 8.00239 15.4878C5.25172 13.1169 3.37901 11.0939 2.07649 9.11675C0.424942 6.60615 0.106708 4.38811 0.956354 2.45944L0.956512 2.45908C1.53353 1.14648 3.2086 0.0586691 5.19259 0.688831C6.14701 0.994565 6.991 1.65374 7.5788 2.57181L7.99989 3.22949L8.42098 2.57181C9.0089 1.65356 9.8531 0.994309 10.8077 0.688655L10.8091 0.688205C12.7848 0.0492649 14.4652 1.14417 15.0433 2.45908Z" fill="#D14372" stroke="#D14372"/>
</svg>
