<svg width="70" height="20" viewBox="0 0 70 20" fill="none" xmlns="http://www.w3.org/2000/svg">
<path d="M24.5722 5.53H29.2072C30.0772 5.53 30.7572 5.775 31.2472 6.265C31.7472 6.755 31.9972 7.41 31.9972 8.23C31.9972 8.62 31.9422 8.955 31.8322 9.235C31.7222 9.505 31.5822 9.73 31.4122 9.91C31.2422 10.08 31.0472 10.21 30.8272 10.3C30.6072 10.38 30.3922 10.43 30.1822 10.45V10.54C30.3922 10.55 30.6222 10.6 30.8722 10.69C31.1322 10.78 31.3722 10.925 31.5922 11.125C31.8122 11.315 31.9972 11.565 32.1472 11.875C32.2972 12.175 32.3722 12.545 32.3722 12.985C32.3722 13.405 32.3022 13.8 32.1622 14.17C32.0322 14.54 31.8472 14.86 31.6072 15.13C31.3672 15.4 31.0822 15.615 30.7522 15.775C30.4222 15.925 30.0622 16 29.6722 16H24.5722V5.53ZM26.2672 14.545H29.1772C29.6172 14.545 29.9622 14.43 30.2122 14.2C30.4622 13.97 30.5872 13.64 30.5872 13.21V12.7C30.5872 12.27 30.4622 11.94 30.2122 11.71C29.9622 11.48 29.6172 11.365 29.1772 11.365H26.2672V14.545ZM26.2672 9.955H28.8922C29.3122 9.955 29.6372 9.85 29.8672 9.64C30.0972 9.42 30.2122 9.11 30.2122 8.71V8.23C30.2122 7.83 30.0972 7.525 29.8672 7.315C29.6372 7.095 29.3122 6.985 28.8922 6.985H26.2672V9.955ZM34.3399 8.2H35.9749V10.81H37.9699C38.3599 10.81 38.7149 10.87 39.0349 10.99C39.3549 11.1 39.6299 11.27 39.8599 11.5C40.0899 11.72 40.2699 11.99 40.3999 12.31C40.5299 12.63 40.5949 12.995 40.5949 13.405C40.5949 14.235 40.3549 14.875 39.8749 15.325C39.3949 15.775 38.7649 16 37.9849 16H34.3399V8.2ZM37.6699 14.725C38.0499 14.725 38.3499 14.645 38.5699 14.485C38.7899 14.315 38.8999 14.055 38.8999 13.705V13.09C38.8999 12.74 38.7899 12.485 38.5699 12.325C38.3499 12.165 38.0499 12.085 37.6699 12.085H35.9749V14.725H37.6699ZM41.7649 8.2H43.3999V16H41.7649V8.2ZM45.7364 8.2H47.3414V12.01L47.1914 13.855H47.2514L48.1814 12.19L50.8814 8.2H52.3664V16H50.7614V12.19L50.9114 10.345H50.8514L49.9214 12.01L47.2214 16H45.7364V8.2ZM49.0664 7.165C48.4664 7.165 47.9864 7.045 47.6264 6.805C47.2764 6.555 46.9964 6.215 46.7864 5.785L46.4864 5.125L47.8214 4.585L48.3314 5.935C48.4314 5.965 48.5464 5.99 48.6764 6.01C48.8164 6.03 48.9464 6.04 49.0664 6.04C49.1864 6.04 49.3114 6.03 49.4414 6.01C49.5814 5.99 49.7014 5.965 49.8014 5.935L50.3114 4.585L51.6464 5.125L51.3464 5.785C51.1364 6.215 50.8514 6.555 50.4914 6.805C50.1414 7.045 49.6664 7.165 49.0664 7.165ZM56.3213 9.535H53.8313V8.2H60.4463V9.535H57.9563V16H56.3213V9.535ZM61.9229 8.2H63.5279V12.01L63.3779 13.855H63.4379L64.3679 12.19L67.0679 8.2H68.5529V16H66.9479V12.19L67.0979 10.345H67.0379L66.1079 12.01L63.4079 16H61.9229V8.2Z" fill="#333333"/>
<path d="M12 10.75V9.25H5.25V7L1.5 10L5.25 13V10.75H12Z" fill="black"/>
<path d="M15 3.25H8.25C7.42275 3.25 6.75 3.92275 6.75 4.75V7.75H8.25V4.75H15V15.25H8.25V12.25H6.75V15.25C6.75 16.0773 7.42275 16.75 8.25 16.75H15C15.8273 16.75 16.5 16.0773 16.5 15.25V4.75C16.5 3.92275 15.8273 3.25 15 3.25Z" fill="black"/>
</svg>
