<svg width="46" height="46" viewBox="0 0 46 46" fill="none" xmlns="http://www.w3.org/2000/svg">
<path d="M8.36804 40.6995V38.3305C8.38194 38.1313 8.35319 37.9314 8.28372 37.7441C8.21426 37.5568 8.10566 37.3865 7.96518 37.2446C7.82469 37.1026 7.65555 36.9922 7.46904 36.9208C7.28252 36.8493 7.08293 36.8185 6.88355 36.8302C6.62261 36.8132 6.36188 36.8665 6.12855 36.9846C5.89522 37.1026 5.69783 37.2811 5.55695 37.5014C5.42856 37.2877 5.24491 37.1126 5.02534 36.9944C4.80577 36.8763 4.55841 36.8196 4.30932 36.8302C4.09218 36.8193 3.87596 36.8653 3.68206 36.9637C3.48816 37.062 3.3233 37.2093 3.20382 37.3909V36.925H2.38255V40.6995H3.21167V38.6069C3.19374 38.4778 3.20464 38.3463 3.24357 38.2219C3.2825 38.0975 3.3485 37.9832 3.43683 37.8873C3.52516 37.7915 3.63362 37.7163 3.75443 37.6674C3.87525 37.6184 4.00541 37.5968 4.13557 37.6041C4.68042 37.6041 4.95683 37.9594 4.95683 38.599V40.6995H5.78595V38.6069C5.76937 38.478 5.78121 38.3471 5.82063 38.2233C5.86006 38.0994 5.92612 37.9857 6.01417 37.8902C6.10222 37.7946 6.21012 37.7195 6.3303 37.67C6.45049 37.6206 6.58003 37.5981 6.70984 37.6041C7.27045 37.6041 7.53892 37.9594 7.53892 38.599V40.6995H8.36804ZM20.6391 36.925H19.2967V35.78H18.4676V36.925H17.7016V37.6752H18.4676V39.3966C18.4676 40.273 18.8071 40.7943 19.7784 40.7943C20.1412 40.7954 20.497 40.6941 20.8049 40.5021L20.5681 39.7993C20.3478 39.9307 20.0979 40.004 19.8416 40.0125C19.4309 40.0125 19.2967 39.7597 19.2967 39.3808V37.6752H20.6391V36.925ZM27.6432 36.8302C27.443 36.8243 27.2449 36.8726 27.0698 36.9699C26.8947 37.0671 26.7491 37.2099 26.6483 37.383V36.925H25.8349V40.6995H26.6562V38.5832C26.6562 37.9594 26.9246 37.612 27.4617 37.612C27.6373 37.6096 27.8117 37.6418 27.9749 37.7067L28.2276 36.9329C28.04 36.8658 27.8424 36.8311 27.6432 36.8302ZM17.0541 37.225C16.5893 36.9487 16.0548 36.8116 15.5143 36.8302C14.5589 36.8302 13.943 37.2882 13.943 38.0384C13.943 38.6543 14.4009 39.0334 15.2458 39.1518L15.6328 39.207C16.0828 39.2701 16.2961 39.3886 16.2961 39.6018C16.2961 39.894 15.996 40.0599 15.4353 40.0599C14.9844 40.0729 14.5422 39.9338 14.1798 39.665L13.7929 40.3046C14.2712 40.6387 14.8442 40.8104 15.4275 40.7943C16.5172 40.7943 17.1488 40.2809 17.1488 39.5624C17.1488 38.8991 16.6514 38.5516 15.8302 38.4332L15.4433 38.3779C15.0879 38.3305 14.8037 38.2595 14.8037 38.0069C14.8037 37.7304 15.0721 37.5646 15.5222 37.5646C15.9355 37.5708 16.3405 37.6823 16.6988 37.8884L17.0541 37.225ZM39.0535 36.8302C38.8533 36.8243 38.6552 36.8726 38.4801 36.9699C38.305 37.0671 38.1594 37.2099 38.0586 37.383V36.925H37.2453V40.6995H38.0665V38.5832C38.0665 37.9594 38.335 37.612 38.8719 37.612C39.0476 37.6096 39.222 37.6418 39.3852 37.7067L39.6379 36.9329C39.4504 36.8658 39.2528 36.8311 39.0535 36.8302ZM28.4723 38.8122C28.4614 39.0781 28.5063 39.3433 28.604 39.5909C28.7018 39.8384 28.8503 40.0627 29.0399 40.2494C29.2296 40.4361 29.4563 40.581 29.7053 40.6749C29.9543 40.7687 30.2203 40.8094 30.486 40.7943C30.979 40.819 31.4635 40.6585 31.8441 40.3441L31.4493 39.6808C31.1654 39.8972 30.8192 40.0163 30.4622 40.0204C30.1545 40.0017 29.8655 39.8663 29.6542 39.6418C29.4429 39.4172 29.3252 39.1205 29.3252 38.8122C29.3252 38.5039 29.4429 38.2072 29.6542 37.9827C29.8655 37.7582 30.1545 37.6228 30.4622 37.6041C30.8192 37.6081 31.1654 37.7272 31.4493 37.9437L31.8441 37.2803C31.4634 36.966 30.979 36.8055 30.486 36.8302C30.2203 36.8151 29.9544 36.8558 29.7053 36.9496C29.4563 37.0435 29.2297 37.1884 29.04 37.375C28.8503 37.5617 28.7018 37.786 28.6041 38.0335C28.5063 38.281 28.4614 38.5463 28.4723 38.8122ZM36.1635 38.8122V36.925H35.3422V37.383C35.2021 37.2024 35.0207 37.0579 34.8132 36.9617C34.6058 36.8656 34.3783 36.8205 34.1499 36.8302C33.641 36.8552 33.1612 37.0749 32.8099 37.4439C32.4586 37.8128 32.2626 38.3028 32.2626 38.8123C32.2626 39.3217 32.4586 39.8117 32.8099 40.1807C33.1612 40.5496 33.641 40.7693 34.1499 40.7943C34.3783 40.804 34.6058 40.7589 34.8132 40.6627C35.0207 40.5666 35.2021 40.4221 35.3422 40.2415V40.6995H36.1635V38.8122ZM33.1075 38.8122C33.1203 38.5894 33.1979 38.3753 33.3309 38.1962C33.4639 38.017 33.6464 37.8808 33.8559 37.8041C34.0654 37.7275 34.2928 37.7138 34.51 37.7648C34.7271 37.8159 34.9246 37.9293 35.0781 38.0913C35.2316 38.2532 35.3343 38.4565 35.3736 38.6761C35.4129 38.8957 35.3871 39.122 35.2993 39.3271C35.2115 39.5322 35.0657 39.7071 34.8797 39.8303C34.6937 39.9535 34.4757 40.0196 34.2526 40.0204C34.0962 40.0225 33.9411 39.9922 33.797 39.9314C33.6529 39.8706 33.523 39.7806 33.4154 39.6671C33.3078 39.5536 33.2249 39.419 33.1719 39.2719C33.119 39.1247 33.097 38.9682 33.1075 38.8122ZM23.1976 36.8302C22.6854 36.8572 22.2037 37.0815 21.8533 37.456C21.5029 37.8304 21.3112 38.3261 21.3184 38.8389C21.3255 39.3516 21.531 39.8417 21.8916 40.2063C22.2523 40.5709 22.7402 40.7816 23.2528 40.7943C23.8162 40.814 24.3672 40.6257 24.8005 40.2651L24.3978 39.6572C24.086 39.9071 23.6998 40.046 23.3002 40.052C23.0288 40.0748 22.7592 39.9911 22.5485 39.8187C22.3377 39.6462 22.2024 39.3985 22.171 39.128H24.9743C24.9822 39.0254 24.99 38.9228 24.99 38.8122C24.9822 37.6357 24.2557 36.8302 23.1976 36.8302ZM23.1817 37.5646C23.4298 37.5598 23.6696 37.6535 23.8487 37.8252C24.0278 37.9969 24.1316 38.2326 24.1372 38.4806H22.1789C22.1933 38.2272 22.3063 37.9895 22.4937 37.8183C22.6811 37.6471 22.9281 37.5561 23.1817 37.5646ZM43.7835 38.8122V35.4089H42.9623V37.383C42.8221 37.2024 42.6407 37.0579 42.4332 36.9617C42.2258 36.8656 41.9984 36.8205 41.7699 36.8302C41.2611 36.8552 40.7813 37.0749 40.4299 37.4439C40.0786 37.8128 39.8826 38.3028 39.8826 38.8123C39.8826 39.3217 40.0786 39.8117 40.4299 40.1807C40.7813 40.5497 41.2611 40.7693 41.7699 40.7943C41.9984 40.804 42.2258 40.7589 42.4333 40.6627C42.6407 40.5666 42.8221 40.4221 42.9623 40.2415V40.6995H43.7835V38.8122ZM45.1525 40.1525C45.2035 40.1521 45.254 40.1622 45.301 40.1819C45.3462 40.2008 45.3874 40.2281 45.4224 40.2624C45.4571 40.2966 45.4849 40.3372 45.5042 40.3819C45.5239 40.4279 45.5341 40.4774 45.5341 40.5274C45.5341 40.5775 45.5239 40.627 45.5042 40.673C45.4848 40.7175 45.457 40.7579 45.4224 40.792C45.3873 40.8263 45.3462 40.8537 45.301 40.8729C45.2541 40.893 45.2035 40.9032 45.1525 40.9028C45.0773 40.9036 45.0036 40.8822 44.9406 40.8413C44.8776 40.8004 44.828 40.7419 44.798 40.673C44.7783 40.627 44.7682 40.5775 44.7682 40.5274C44.7682 40.4774 44.7783 40.4279 44.798 40.3819C44.8173 40.3372 44.8449 40.2967 44.8795 40.2624C44.9144 40.2278 44.9558 40.2005 45.0013 40.1819C45.0492 40.1621 45.1006 40.1521 45.1525 40.1525ZM45.1525 40.8201C45.1914 40.8204 45.2299 40.8125 45.2656 40.7971C45.2999 40.7822 45.3311 40.761 45.3575 40.7345C45.412 40.6795 45.4426 40.6051 45.4426 40.5276C45.4426 40.4501 45.412 40.3758 45.3575 40.3207C45.3311 40.2944 45.2999 40.2733 45.2656 40.2587C45.2299 40.2435 45.1913 40.2358 45.1525 40.2362C45.1129 40.2359 45.0736 40.2435 45.0371 40.2587C45.0022 40.2731 44.9705 40.2941 44.9438 40.3207C44.8892 40.3758 44.8586 40.4501 44.8586 40.5276C44.8586 40.6051 44.8892 40.6795 44.9438 40.7345C44.9706 40.7612 45.0023 40.7824 45.0371 40.7971C45.0736 40.8125 45.1128 40.8203 45.1525 40.8201ZM45.1745 40.352C45.2115 40.3496 45.2481 40.3602 45.278 40.3819C45.29 40.3917 45.2995 40.4042 45.3058 40.4183C45.312 40.4325 45.315 40.4478 45.3143 40.4633C45.3147 40.4765 45.3124 40.4897 45.3074 40.502C45.3024 40.5142 45.2949 40.5253 45.2854 40.5345C45.2625 40.5548 45.2336 40.5669 45.203 40.569L45.3171 40.7005H45.2279L45.1222 40.5699H45.0881V40.7005H45.0137V40.352H45.1745ZM45.0881 40.4173V40.5102H45.1737C45.1901 40.511 45.2064 40.507 45.2206 40.4986C45.2263 40.4948 45.231 40.4895 45.234 40.4833C45.2371 40.4771 45.2385 40.4702 45.238 40.4633C45.2384 40.4565 45.237 40.4498 45.2339 40.4437C45.2309 40.4376 45.2263 40.4325 45.2206 40.4287C45.2064 40.4205 45.1901 40.4165 45.1737 40.4173H45.0881ZM40.7276 38.8122C40.7404 38.5894 40.818 38.3753 40.951 38.1962C41.084 38.0171 41.2665 37.8808 41.476 37.8042C41.6855 37.7276 41.9129 37.7139 42.1301 37.765C42.3472 37.816 42.5447 37.9295 42.6982 38.0914C42.8516 38.2533 42.9543 38.4566 42.9936 38.6762C43.0329 38.8958 43.007 39.1221 42.9193 39.3272C42.8315 39.5323 42.6856 39.7072 42.4996 39.8304C42.3136 39.9535 42.0956 40.0196 41.8726 40.0204C41.7162 40.0225 41.5611 39.9922 41.417 39.9314C41.2729 39.8705 41.143 39.7805 41.0355 39.667C40.9279 39.5535 40.845 39.419 40.792 39.2718C40.739 39.1247 40.7171 38.9682 40.7276 38.8122ZM12.9954 38.8122V36.925H12.1741V37.383C12.0339 37.2024 11.8525 37.0579 11.6451 36.9617C11.4377 36.8656 11.2102 36.8205 10.9818 36.8302C10.4729 36.8552 9.99312 37.0749 9.6418 37.4439C9.29049 37.8128 9.09454 38.3028 9.09454 38.8123C9.09454 39.3217 9.29049 39.8117 9.6418 40.1807C9.99312 40.5496 10.4729 40.7693 10.9818 40.7943C11.2102 40.804 11.4377 40.7589 11.6451 40.6627C11.8525 40.5666 12.0339 40.4221 12.1741 40.2415V40.6995H12.9954V38.8122ZM9.93948 38.8122C9.95223 38.5894 10.0299 38.3753 10.1629 38.1962C10.2959 38.0171 10.4784 37.8808 10.6879 37.8042C10.8974 37.7276 11.1248 37.7139 11.3419 37.765C11.5591 37.816 11.7566 37.9295 11.91 38.0914C12.0635 38.2533 12.1662 38.4566 12.2055 38.6762C12.2448 38.8958 12.2189 39.1221 12.1311 39.3272C12.0434 39.5323 11.8975 39.7072 11.7115 39.8304C11.5255 39.9536 11.3075 40.0196 11.0844 40.0204C10.9281 40.0225 10.7729 39.9922 10.6289 39.9314C10.4848 39.8705 10.3549 39.7805 10.2473 39.667C10.1398 39.5535 10.0569 39.419 10.0039 39.2718C9.95091 39.1247 9.92897 38.9682 9.93948 38.8122Z" fill="#333333"/>
<path d="M29.2197 8.15955H16.7812V30.512H29.2197V8.15955Z" fill="#FF5F00"/>
<path d="M17.5708 19.3366C17.5688 17.1839 18.0567 15.059 18.9973 13.1227C19.938 11.1864 21.3069 9.48944 23.0003 8.16037C20.9032 6.51202 18.3847 5.48694 15.7326 5.20228C13.0804 4.91763 10.4017 5.38489 8.00261 6.55066C5.60349 7.71643 3.58075 9.53368 2.16561 11.7947C0.750463 14.0557 0 16.6692 0 19.3366C0 22.004 0.750463 24.6175 2.16561 26.8785C3.58075 29.1395 5.60349 30.9568 8.00261 32.1225C10.4017 33.2883 13.0804 33.7556 15.7326 33.4709C18.3847 33.1863 20.9032 32.1612 23.0003 30.5128C21.3069 29.1838 19.938 27.4868 18.9973 25.5505C18.0567 23.6142 17.5688 21.4893 17.5708 19.3366Z" fill="#EB001B"/>
<path d="M46 19.3366C46.0001 22.0039 45.2498 24.6175 43.8347 26.8785C42.4196 29.1395 40.3969 30.9567 37.9979 32.1225C35.5988 33.2883 32.9201 33.7556 30.268 33.4709C27.616 33.1863 25.0975 32.1612 23.0004 30.5128C24.6924 29.1824 26.0602 27.4852 27.0007 25.5492C27.9412 23.6132 28.4299 21.489 28.4299 19.3366C28.4299 17.1842 27.9412 15.06 27.0007 13.124C26.0602 11.188 24.6924 9.49078 23.0004 8.16037C25.0975 6.51202 27.616 5.48693 30.268 5.20228C32.9201 4.91763 35.5988 5.3849 37.9979 6.55068C40.3969 7.71647 42.4196 9.53372 43.8347 11.7947C45.2498 14.0557 46.0001 16.6693 46 19.3366Z" fill="#F79E1B"/>
<path d="M44.6438 28.1449V27.6873H44.8284V27.5941H44.3584V27.6873H44.543V28.1449H44.6438ZM45.5562 28.1449V27.5931H45.4122L45.2465 27.9727L45.0807 27.5931H44.9366V28.1449H45.0383V27.7287L45.1937 28.0875H45.2992L45.4546 27.7278V28.1449H45.5562Z" fill="#F79E1B"/>
</svg>
