<svg width="46" height="46" viewBox="0 0 46 46" fill="none" xmlns="http://www.w3.org/2000/svg">
<path d="M4.31893 16.7122C4.29543 16.7126 4.27365 16.713 4.25377 16.7131L0 16.7131V29.2585H4.11051V21.8598H4.38615L6.67755 29.2585H9.77019L12.0616 21.8653H12.3372V29.2585H16.4477V16.7131L12.4148 16.7131C12.3835 16.7131 12.3494 16.7126 12.3128 16.7121C11.7385 16.7043 10.5539 16.688 10.0625 18.3466C9.75706 19.3775 9.19589 21.3041 8.37898 24.1263H8.06876C7.30701 21.4493 6.75189 19.5228 6.40341 18.3466C5.9111 16.6851 4.78126 16.7043 4.31893 16.7122Z" fill="#333333"/>
<path d="M22.3503 24.1119V16.7131H18.154V29.2586H22.1317C22.1317 29.2586 23.3396 29.149 23.8806 27.9438L26.6133 21.8598H26.9412V29.2586H31.1375V16.7131H27.1598C27.1598 16.7131 26.0066 16.8172 25.4655 18.0279L22.6783 24.1119H22.3503Z" fill="#333333"/>
<path d="M41.1833 25.5215C43.2184 25.5215 45.0566 24.3335 45.642 22.6748H32.7921V29.2586H36.7826V25.5215H41.1833Z" fill="#333333"/>
<path d="M32.5828 16.7131H41.3757C44.759 16.7131 46.3943 19.5758 45.9193 21.8972H37.6873C35.1974 21.8972 32.7921 19.5062 32.5828 16.7131Z" fill="#333333"/>
</svg>
