<svg width="88" height="53" viewBox="0 0 77 53" fill="none" xmlns="http://www.w3.org/2000/svg">
<path d="M17 18V16H26V13L31 17L26 21V18H17Z" fill="#333333"/>
<path d="M33 8H24C22.897 8 22 8.897 22 10V14H24V10H33V24H24V20H22V24C22 25.103 22.897 26 24 26H33C34.103 26 35 25.103 35 24V10C35 8.897 34.103 8 33 8Z" fill="black"/>
<path d="M6.46218 44V33.0909H10.4572C11.2314 33.0909 11.8723 33.2187 12.3801 33.4744C12.888 33.7266 13.2679 34.0692 13.5201 34.5025C13.7722 34.9322 13.8983 35.4169 13.8983 35.9567C13.8983 36.4112 13.8148 36.7947 13.6479 37.1072C13.481 37.4162 13.2573 37.6648 12.9767 37.853C12.6998 38.0376 12.3944 38.1726 12.0605 38.2578V38.3643C12.4228 38.3821 12.7761 38.4993 13.1206 38.7159C13.4686 38.929 13.7562 39.2326 13.9835 39.6268C14.2108 40.021 14.3244 40.5004 14.3244 41.065C14.3244 41.6225 14.193 42.1232 13.9302 42.5671C13.671 43.0075 13.2697 43.3572 12.7264 43.6165C12.1831 43.8722 11.4888 44 10.6436 44H6.46218ZM8.10813 42.5884H10.4838C11.2722 42.5884 11.8368 42.4357 12.1777 42.1303C12.5186 41.8249 12.6891 41.4432 12.6891 40.9851C12.6891 40.6406 12.6021 40.3246 12.4281 40.0369C12.2541 39.7493 12.0055 39.5202 11.6824 39.3498C11.3627 39.1793 10.9828 39.0941 10.5424 39.0941H8.10813V42.5884ZM8.10813 37.8104H10.3134C10.6827 37.8104 11.0147 37.7393 11.3095 37.5973C11.6078 37.4553 11.8439 37.2564 12.0179 37.0007C12.1955 36.7415 12.2843 36.4361 12.2843 36.0845C12.2843 35.6335 12.1262 35.2553 11.8102 34.9499C11.4941 34.6445 11.0094 34.4918 10.356 34.4918H8.10813V37.8104ZM19.5952 44.1651C18.8281 44.1651 18.1587 43.9893 17.587 43.6378C17.0153 43.2862 16.5714 42.7944 16.2553 42.1623C15.9393 41.5302 15.7812 40.7915 15.7812 39.9464C15.7812 39.0977 15.9393 38.3555 16.2553 37.7198C16.5714 37.0842 17.0153 36.5906 17.587 36.239C18.1587 35.8874 18.8281 35.7116 19.5952 35.7116C20.3622 35.7116 21.0316 35.8874 21.6033 36.239C22.1751 36.5906 22.619 37.0842 22.935 37.7198C23.2511 38.3555 23.4091 39.0977 23.4091 39.9464C23.4091 40.7915 23.2511 41.5302 22.935 42.1623C22.619 42.7944 22.1751 43.2862 21.6033 43.6378C21.0316 43.9893 20.3622 44.1651 19.5952 44.1651ZM19.6005 42.8281C20.0977 42.8281 20.5096 42.6967 20.8363 42.4339C21.163 42.1712 21.4045 41.8214 21.5607 41.3846C21.7205 40.9478 21.8004 40.4666 21.8004 39.9411C21.8004 39.419 21.7205 38.9396 21.5607 38.5028C21.4045 38.0625 21.163 37.7092 20.8363 37.4428C20.5096 37.1765 20.0977 37.0433 19.6005 37.0433C19.0998 37.0433 18.6843 37.1765 18.354 37.4428C18.0273 37.7092 17.7841 38.0625 17.6243 38.5028C17.468 38.9396 17.3899 39.419 17.3899 39.9411C17.3899 40.4666 17.468 40.9478 17.6243 41.3846C17.7841 41.8214 18.0273 42.1712 18.354 42.4339C18.6843 42.6967 19.0998 42.8281 19.6005 42.8281ZM26.7476 41.7681L30.3538 35.8182H32.069V44H30.5083V38.0447L26.9181 44H25.1869V35.8182H26.7476V41.7681ZM29.672 33.0483H30.9823C30.9823 33.6484 30.7693 34.1367 30.3431 34.5131C29.9205 34.886 29.3488 35.0724 28.6279 35.0724C27.9106 35.0724 27.3406 34.886 26.9181 34.5131C26.4955 34.1367 26.2842 33.6484 26.2842 33.0483H27.5892C27.5892 33.3146 27.6673 33.5508 27.8236 33.7567C27.9798 33.9592 28.248 34.0604 28.6279 34.0604C29.0008 34.0604 29.2671 33.9592 29.4269 33.7567C29.5903 33.5543 29.672 33.3182 29.672 33.0483ZM33.1956 37.1925V35.8182H40.099V37.1925H37.4303V44H35.8749V37.1925H33.1956ZM43.3443 41.7681L46.9505 35.8182H48.6657V44H47.1049V38.0447L43.5147 44H41.7836V35.8182H43.3443V41.7681Z" fill="#333333"/>
</svg>
