<svg width="18" height="19" viewBox="0 0 22 22" fill="none" xmlns="http://www.w3.org/2000/svg">
<path d="M20.4331 17.246L17.0124 13.8038L14.3812 12.71C15.2573 11.4563 15.7267 9.96065 15.725 8.42805C15.725 4.30824 12.3941 0.956543 8.29998 0.956543C4.20582 0.956543 0.875 4.30824 0.875 8.42805C0.875 12.5479 4.20582 15.8996 8.29998 15.8996C9.83629 15.9013 11.3349 15.4209 12.587 14.5251L13.6712 17.1656L17.0918 20.6079C17.3112 20.8287 17.5717 21.0038 17.8583 21.1233C18.1449 21.2428 18.4521 21.3043 18.7624 21.3043C19.0726 21.3043 19.3799 21.2428 19.6665 21.1234C19.9531 21.0039 20.2136 20.8288 20.433 20.608C20.6524 20.3873 20.8264 20.1252 20.9451 19.8368C21.0639 19.5484 21.125 19.2392 21.125 18.927C21.125 18.6148 21.0639 18.3057 20.9452 18.0172C20.8265 17.7288 20.6525 17.4667 20.4331 17.246ZM2.225 8.42805C2.225 5.05738 4.9503 2.315 8.29998 2.315C11.6497 2.315 14.375 5.05738 14.375 8.42805C14.375 11.7987 11.6497 14.5411 8.29998 14.5411C4.9503 14.5411 2.225 11.7987 2.225 8.42805ZM19.4784 19.6474C19.2884 19.8382 19.0309 19.9453 18.7625 19.9453C18.494 19.9453 18.2365 19.8382 18.0465 19.6474L14.8161 16.3968L13.8081 13.9416L16.2481 14.9559L19.4785 18.2065C19.6681 18.3978 19.7745 18.6568 19.7745 18.927C19.7745 19.1971 19.668 19.4562 19.4784 19.6474Z" fill="#EEEEEE"/>
</svg>
