<svg width="12" height="12" viewBox="0 0 12 12" fill="none" xmlns="http://www.w3.org/2000/svg">
<path d="M11.25 0H0.75C0.335786 0 0 0.335786 0 0.75C0 1.16421 0.335786 1.5 0.75 1.5H11.25C11.6642 1.5 12 1.16421 12 0.75C12 0.335786 11.6642 0 11.25 0Z" fill="black"/>
<path d="M8.25 5.25H0.75C0.335786 5.25 0 5.58579 0 6C0 6.41421 0.335786 6.75 0.75 6.75H8.25C8.66421 6.75 9 6.41421 9 6C9 5.58579 8.66421 5.25 8.25 5.25Z" fill="black"/>
<path d="M5.25 10.5H0.75C0.335786 10.5 0 10.8358 0 11.25C0 11.6642 0.335786 12 0.75 12H5.25C5.66421 12 6 11.6642 6 11.25C6 10.8358 5.66421 10.5 5.25 10.5Z" fill="black"/>
</svg>
