<svg width="46" height="46" viewBox="0 0 46 46" fill="none" xmlns="http://www.w3.org/2000/svg">
<path d="M22.7762 15.8054L19.703 30.1731H15.9858L19.0593 15.8054H22.7762ZM38.4143 25.0828L40.3707 19.6874L41.4965 25.0828H38.4143ZM42.5629 30.1731H46L42.9973 15.8054H39.8268C39.1123 15.8054 38.5099 16.2197 38.2433 16.8585L32.666 30.1731H36.5697L37.3446 28.0274H42.1128L42.5629 30.1731ZM32.8596 25.4825C32.8757 21.6907 27.6177 21.4806 27.6529 19.7863C27.6642 19.2715 28.1554 18.7231 29.229 18.5829C29.7612 18.5144 31.2299 18.4588 32.8948 19.226L33.546 16.178C32.6518 15.8545 31.5011 15.543 30.0692 15.543C26.3946 15.543 23.8097 17.4948 23.789 20.292C23.7654 22.3605 25.6355 23.5139 27.0415 24.2028C28.4912 24.907 28.9769 25.3584 28.9698 25.9876C28.9598 26.9516 27.8139 27.3785 26.7468 27.3946C24.877 27.4237 23.7932 26.8892 22.9294 26.4866L22.2546 29.6364C23.1246 30.0345 24.7274 30.3809 26.3871 30.3987C30.2937 30.3987 32.848 28.4698 32.8596 25.4825ZM17.4649 15.8054L11.4422 30.1731H7.51365L4.54969 18.7066C4.37001 18.0015 4.21328 17.7424 3.66683 17.4444C2.77299 16.959 1.29746 16.505 0 16.2226L0.0878989 15.8054H6.41267C7.21829 15.8054 7.94312 16.3415 8.12765 17.2696L9.69333 25.5843L13.5599 15.8054H17.4649Z" fill="#333333"/>
</svg>
