<svg width="40" height="40" viewBox="0 0 40 40" fill="none" xmlns="http://www.w3.org/2000/svg">
<path d="M19.3133 0L0 9.2673V14.0886H40V9.24172L19.3133 0ZM37.3333 11.4311H2.66667V10.9373L19.3534 2.93031L37.3333 10.9628V11.4311Z" fill="#333333"/>
<path d="M37.3333 32.6917H2.66666V35.3492H37.3333V32.6917Z" fill="#333333"/>
<path d="M40 37.3424H0V40H40V37.3424Z" fill="#333333"/>
<path d="M6.00001 16.7462H3.33334V30.0341H6.00001V16.7462Z" fill="#333333"/>
<path d="M36.6667 16.7462H34V30.0341H36.6667V16.7462Z" fill="#333333"/>
<path d="M28.6667 16.7462H26V30.0341H28.6667V16.7462Z" fill="#333333"/>
<path d="M14 16.7462H11.3333V30.0341H14V16.7462Z" fill="#333333"/>
<path d="M21.3333 16.7462H18.6667V30.0341H21.3333V16.7462Z" fill="#333333"/>
</svg>
