<svg width="88" height="53" viewBox="0 0 65 53" fill="none" xmlns="http://www.w3.org/2000/svg">
<path d="M32.779 6.56188C32.5999 6.48977 32.4001 6.48977 32.221 6.56188L23.269 10.1597L26.875 11.6081L36.106 7.8988L32.779 6.56188ZM38.125 8.71121L28.894 12.4205L32.5 13.869L41.731 10.1597L38.125 8.71121ZM43 11.2735L33.25 15.1923V27.1327L43 23.2139V11.275V11.2735ZM31.75 27.1342V15.1908L22 11.2735V23.2154L31.75 27.1342ZM31.6645 5.16165C32.2008 4.94612 32.7992 4.94612 33.3355 5.16165L44.029 9.4603C44.168 9.51629 44.2872 9.61283 44.3711 9.73747C44.4551 9.86211 44.5 10.0092 44.5 10.1597V23.2154C44.4998 23.5166 44.4098 23.8108 44.2417 24.0601C44.0735 24.3094 43.8348 24.5024 43.5565 24.6141L32.779 28.9459C32.5999 29.018 32.4001 29.018 32.221 28.9459L21.445 24.6141C21.1664 24.5026 20.9274 24.3097 20.759 24.0604C20.5905 23.8111 20.5003 23.5167 20.5 23.2154V10.1597C20.5 10.0092 20.5449 9.86211 20.6289 9.73747C20.7128 9.61283 20.832 9.51629 20.971 9.4603L31.6645 5.16165Z" fill="#333333"/>
<path d="M10.2404 44.1491C9.50883 44.1491 8.85542 44.0231 8.28014 43.771C7.70841 43.5188 7.25564 43.169 6.92183 42.7216C6.59157 42.2706 6.41402 41.7486 6.38916 41.1555H8.06175C8.08305 41.4787 8.19136 41.7592 8.38667 41.9972C8.58554 42.2315 8.84477 42.4126 9.16437 42.5405C9.48398 42.6683 9.83909 42.7322 10.2297 42.7322C10.6594 42.7322 11.0394 42.6577 11.3696 42.5085C11.7034 42.3594 11.9644 42.1516 12.1527 41.8853C12.3409 41.6154 12.435 41.3047 12.435 40.9531C12.435 40.5874 12.3409 40.266 12.1527 39.989C11.968 39.7085 11.6963 39.4883 11.3377 39.3285C10.9826 39.1687 10.5529 39.0888 10.0486 39.0888H9.12709V37.7464H10.0486C10.4534 37.7464 10.8085 37.6737 11.1139 37.5281C11.4229 37.3825 11.6644 37.18 11.8384 36.9208C12.0124 36.658 12.0994 36.3509 12.0994 35.9993C12.0994 35.6619 12.023 35.369 11.8703 35.1204C11.7212 34.8683 11.5081 34.6712 11.2311 34.5291C10.9577 34.3871 10.6345 34.3161 10.2617 34.3161C9.90656 34.3161 9.57453 34.3817 9.26558 34.5131C8.96018 34.641 8.7116 34.8256 8.51984 35.0671C8.32808 35.305 8.2251 35.5909 8.21089 35.9247H6.61821C6.63596 35.3352 6.80997 34.8168 7.14023 34.3693C7.47403 33.9219 7.91437 33.5721 8.46125 33.32C9.00812 33.0678 9.61537 32.9418 10.283 32.9418C10.9826 32.9418 11.5862 33.0785 12.0941 33.3519C12.6054 33.6218 12.9996 33.9822 13.2766 34.4332C13.5571 34.8842 13.6956 35.3778 13.6921 35.9141C13.6956 36.5249 13.5252 37.0433 13.1807 37.4695C12.8398 37.8956 12.3853 38.1815 11.8171 38.3271V38.4123C12.5415 38.5224 13.1026 38.81 13.5003 39.2752C13.9016 39.7404 14.1005 40.3175 14.0969 41.0064C14.1005 41.6065 13.9335 42.1445 13.5962 42.6204C13.2624 43.0962 12.8061 43.4709 12.2272 43.7443C11.6484 44.0142 10.9861 44.1491 10.2404 44.1491ZM18.5127 44.1811C17.9943 44.1811 17.5255 44.0852 17.1065 43.8935C16.6875 43.6982 16.3554 43.4158 16.1104 43.0465C15.8689 42.6772 15.7482 42.2244 15.7482 41.6882C15.7482 41.2266 15.837 40.8466 16.0145 40.5483C16.1921 40.25 16.4318 40.0138 16.7336 39.8398C17.0355 39.6658 17.3728 39.5344 17.7457 39.4457C18.1186 39.3569 18.4985 39.2894 18.8856 39.2433C19.3757 39.1864 19.7734 39.1403 20.0788 39.1048C20.3842 39.0657 20.6061 39.0036 20.7446 38.9183C20.8831 38.8331 20.9524 38.6946 20.9524 38.5028V38.4656C20.9524 38.0004 20.821 37.6399 20.5582 37.3842C20.299 37.1286 19.9119 37.0007 19.397 37.0007C18.8608 37.0007 18.4382 37.1197 18.1292 37.3576C17.8238 37.592 17.6125 37.853 17.4953 38.1406L15.9985 37.7997C16.1761 37.3026 16.4353 36.9013 16.7762 36.5959C17.1207 36.2869 17.5166 36.0632 17.9641 35.9247C18.4115 35.7827 18.8821 35.7116 19.3757 35.7116C19.7024 35.7116 20.0486 35.7507 20.4144 35.8288C20.7837 35.9034 21.1282 36.0419 21.4478 36.2443C21.7709 36.4467 22.0355 36.7362 22.2414 37.1126C22.4474 37.4854 22.5504 37.9702 22.5504 38.5668V44H20.995V42.8814H20.9311C20.8281 43.0874 20.6736 43.2898 20.4676 43.4886C20.2617 43.6875 19.9971 43.8526 19.674 43.984C19.3508 44.1154 18.9637 44.1811 18.5127 44.1811ZM18.859 42.9027C19.2993 42.9027 19.6757 42.8157 19.9882 42.6417C20.3043 42.4677 20.544 42.2404 20.7073 41.9599C20.8742 41.6758 20.9577 41.3722 20.9577 41.049V39.9943C20.9009 40.0511 20.7908 40.1044 20.6274 40.1541C20.4676 40.2003 20.2848 40.2411 20.0788 40.2766C19.8728 40.3086 19.6722 40.3388 19.4769 40.3672C19.2816 40.392 19.1182 40.4134 18.9868 40.4311C18.6779 40.4702 18.3956 40.5359 18.1399 40.6282C17.8877 40.7205 17.6853 40.8537 17.5326 41.0277C17.3835 41.1982 17.3089 41.4254 17.3089 41.7095C17.3089 42.1037 17.4545 42.402 17.7457 42.6044C18.0369 42.8033 18.408 42.9027 18.859 42.9027ZM24.6717 44V35.8182H26.2644V39.2486H27.0315L29.7321 35.8182H31.703L28.5336 39.7972L31.7403 44H29.7641L27.2978 40.7294H26.2644V44H24.6717ZM35.3584 44.1811C34.84 44.1811 34.3712 44.0852 33.9522 43.8935C33.5332 43.6982 33.2011 43.4158 32.9561 43.0465C32.7146 42.6772 32.5939 42.2244 32.5939 41.6882C32.5939 41.2266 32.6827 40.8466 32.8602 40.5483C33.0378 40.25 33.2775 40.0138 33.5793 39.8398C33.8812 39.6658 34.2185 39.5344 34.5914 39.4457C34.9643 39.3569 35.3442 39.2894 35.7313 39.2433C36.2214 39.1864 36.6191 39.1403 36.9245 39.1048C37.2299 39.0657 37.4518 39.0036 37.5903 38.9183C37.7288 38.8331 37.7981 38.6946 37.7981 38.5028V38.4656C37.7981 38.0004 37.6667 37.6399 37.4039 37.3842C37.1447 37.1286 36.7576 37.0007 36.2427 37.0007C35.7065 37.0007 35.2839 37.1197 34.9749 37.3576C34.6695 37.592 34.4582 37.853 34.341 38.1406L32.8442 37.7997C33.0218 37.3026 33.281 36.9013 33.6219 36.5959C33.9664 36.2869 34.3623 36.0632 34.8098 35.9247C35.2572 35.7827 35.7278 35.7116 36.2214 35.7116C36.5481 35.7116 36.8943 35.7507 37.2601 35.8288C37.6294 35.9034 37.9739 36.0419 38.2935 36.2443C38.6166 36.4467 38.8812 36.7362 39.0871 37.1126C39.2931 37.4854 39.3961 37.9702 39.3961 38.5668V44H37.8407V42.8814H37.7768C37.6738 43.0874 37.5193 43.2898 37.3133 43.4886C37.1074 43.6875 36.8428 43.8526 36.5197 43.984C36.1965 44.1154 35.8094 44.1811 35.3584 44.1811ZM35.7047 42.9027C36.145 42.9027 36.5214 42.8157 36.8339 42.6417C37.15 42.4677 37.3897 42.2404 37.553 41.9599C37.7199 41.6758 37.8034 41.3722 37.8034 41.049V39.9943C37.7466 40.0511 37.6365 40.1044 37.4731 40.1541C37.3133 40.2003 37.1305 40.2411 36.9245 40.2766C36.7185 40.3086 36.5179 40.3388 36.3226 40.3672C36.1273 40.392 35.9639 40.4134 35.8325 40.4311C35.5236 40.4702 35.2413 40.5359 34.9856 40.6282C34.7334 40.7205 34.531 40.8537 34.3783 41.0277C34.2292 41.1982 34.1546 41.4254 34.1546 41.7095C34.1546 42.1037 34.3002 42.402 34.5914 42.6044C34.8826 42.8033 35.2537 42.9027 35.7047 42.9027ZM41.0327 41.8374H42.6627C42.684 42.1712 42.8349 42.4286 43.1155 42.6097C43.3995 42.7908 43.7671 42.8814 44.2181 42.8814C44.6762 42.8814 45.0668 42.7837 45.39 42.5884C45.7131 42.3896 45.8747 42.0824 45.8747 41.6669C45.8747 41.4183 45.8125 41.2017 45.6883 41.017C45.5675 40.8288 45.3953 40.6832 45.1716 40.5803C44.9514 40.4773 44.6904 40.4258 44.3885 40.4258H43.0569V39.174H44.3885C44.8395 39.174 45.1769 39.071 45.4006 38.8651C45.6243 38.6591 45.7362 38.4016 45.7362 38.0927C45.7362 37.7589 45.6155 37.4908 45.374 37.2884C45.1361 37.0824 44.804 36.9794 44.3779 36.9794C43.9446 36.9794 43.5842 37.0771 43.2966 37.2724C43.0089 37.4641 42.858 37.7127 42.8438 38.0181H41.2351C41.2458 37.56 41.3843 37.1587 41.6506 36.8143C41.9205 36.4663 42.2827 36.1964 42.7373 36.0046C43.1954 35.8093 43.7156 35.7116 44.298 35.7116C44.9052 35.7116 45.4308 35.8093 45.8747 36.0046C46.3186 36.1999 46.6613 36.4698 46.9027 36.8143C47.1478 37.1587 47.2703 37.5547 47.2703 38.0021C47.2703 38.4531 47.1353 38.8224 46.8655 39.1101C46.5991 39.3942 46.2511 39.5984 45.8214 39.7227V39.8079C46.1375 39.8292 46.418 39.9251 46.663 40.0955C46.9081 40.266 47.0998 40.4915 47.2383 40.772C47.3768 41.0526 47.4461 41.3704 47.4461 41.7255C47.4461 42.2262 47.3076 42.6594 47.0306 43.0252C46.7571 43.391 46.3772 43.6733 45.8907 43.8722C45.4077 44.0675 44.8555 44.1651 44.2341 44.1651C43.6304 44.1651 43.0888 44.071 42.6094 43.8828C42.1336 43.6911 41.7554 43.4212 41.4748 43.0732C41.1978 42.7251 41.0505 42.3132 41.0327 41.8374ZM50.2892 38.6307H52.6649C53.6663 38.6307 54.4369 38.8793 54.9767 39.3764C55.5165 39.8736 55.7864 40.5146 55.7864 41.2994C55.7864 41.8107 55.6656 42.2706 55.4241 42.679C55.1827 43.0874 54.8293 43.4105 54.3641 43.6484C53.8989 43.8828 53.3325 44 52.6649 44H49.0907V35.8182H50.6514V42.6257H52.6649C53.123 42.6257 53.4994 42.5067 53.7942 42.2688C54.0889 42.0273 54.2363 41.7202 54.2363 41.3473C54.2363 40.9531 54.0889 40.6317 53.7942 40.3832C53.4994 40.131 53.123 40.005 52.6649 40.005H50.2892V38.6307ZM56.9476 44V35.8182H58.5403V44H56.9476Z" fill="#333333"/>
</svg>
