<svg width="88" height="53" viewBox="0 0 77 53" fill="none" xmlns="http://www.w3.org/2000/svg">
<path d="M48.1261 21.3828L43.3768 19.0161L45.1673 16.4994C45.5847 15.9117 45.8037 15.2532 45.8043 14.5841V10.6C45.8043 9.11479 45.0348 7.69041 43.665 6.6402C42.2951 5.59 40.4372 5 38.5 5C36.5628 5 34.7049 5.59 33.3351 6.6402C31.9652 7.69041 31.1957 9.11479 31.1957 10.6V14.5841C31.1963 15.2533 31.4153 15.9117 31.8327 16.4994L33.6232 19.0161L28.8739 21.3828C28.144 21.7451 27.5443 22.2419 27.1295 22.8278C26.7148 23.4137 26.4984 24.07 26.5 24.7366V29H50.5V24.7366C50.5016 24.07 50.2852 23.4137 49.8705 22.8278C49.4557 22.2419 48.856 21.7451 48.1261 21.3828ZM48.413 27.4H28.587V24.7366C28.586 24.3366 28.7159 23.9428 28.9647 23.5913C29.2136 23.2397 29.5734 22.9417 30.0114 22.7243L36.3805 19.5503L33.6649 15.7333C33.4144 15.3807 33.283 14.9856 33.2826 14.5841V10.6C33.2826 9.53913 33.8323 8.52172 34.8108 7.77157C35.7892 7.02143 37.1163 6.6 38.5 6.6C39.8837 6.6 41.2108 7.02143 42.1893 7.77157C43.1677 8.52172 43.7174 9.53913 43.7174 10.6V14.5841C43.717 14.9856 43.5856 15.3807 43.3352 15.7333L40.6196 19.5503L46.9888 22.7243C47.4267 22.9417 47.7866 23.2398 48.0354 23.5913C48.2842 23.9429 48.414 24.3366 48.413 24.7366V27.4Z" fill="#333333"/>
<path d="M14.96 33.0909V44H13.3193V34.4972H8.18439V44H6.54377V33.0909H14.96ZM17.349 47.0682V35.8182H18.9044V37.1445H19.0376C19.1299 36.9741 19.2631 36.777 19.4371 36.5533C19.6111 36.3295 19.8525 36.1342 20.1615 35.9673C20.4704 35.7969 20.8788 35.7116 21.3866 35.7116C22.0471 35.7116 22.6366 35.8786 23.1551 36.2124C23.6736 36.5462 24.0802 37.0273 24.3749 37.6559C24.6732 38.2844 24.8224 39.0408 24.8224 39.9251C24.8224 40.8093 24.675 41.5675 24.3802 42.1996C24.0855 42.8281 23.6807 43.3129 23.1657 43.6538C22.6508 43.9911 22.0631 44.1598 21.4026 44.1598C20.9055 44.1598 20.4988 44.0763 20.1828 43.9094C19.8703 43.7425 19.6253 43.5472 19.4477 43.3235C19.2702 43.0998 19.1334 42.9009 19.0376 42.7269H18.9417V47.0682H17.349ZM18.9097 39.9091C18.9097 40.4844 18.9932 40.9886 19.1601 41.4219C19.327 41.8551 19.5684 42.1942 19.8845 42.4393C20.2006 42.6808 20.5876 42.8015 21.0457 42.8015C21.5216 42.8015 21.9193 42.6754 22.2389 42.4233C22.5585 42.1676 22.8 41.8214 22.9633 41.3846C23.1302 40.9478 23.2137 40.456 23.2137 39.9091C23.2137 39.3693 23.132 38.8846 22.9687 38.4549C22.8089 38.0252 22.5674 37.6861 22.2442 37.4375C21.9246 37.1889 21.5251 37.0646 21.0457 37.0646C20.5841 37.0646 20.1934 37.1836 19.8738 37.4215C19.5578 37.6594 19.3181 37.9915 19.1547 38.4176C18.9914 38.8437 18.9097 39.3409 18.9097 39.9091ZM30.0532 44.1651C29.2861 44.1651 28.6167 43.9893 28.045 43.6378C27.4733 43.2862 27.0294 42.7944 26.7133 42.1623C26.3973 41.5302 26.2393 40.7915 26.2393 39.9464C26.2393 39.0977 26.3973 38.3555 26.7133 37.7198C27.0294 37.0842 27.4733 36.5906 28.045 36.239C28.6167 35.8874 29.2861 35.7116 30.0532 35.7116C30.8202 35.7116 31.4896 35.8874 32.0613 36.239C32.6331 36.5906 33.077 37.0842 33.393 37.7198C33.7091 38.3555 33.8671 39.0977 33.8671 39.9464C33.8671 40.7915 33.7091 41.5302 33.393 42.1623C33.077 42.7944 32.6331 43.2862 32.0613 43.6378C31.4896 43.9893 30.8202 44.1651 30.0532 44.1651ZM30.0585 42.8281C30.5557 42.8281 30.9676 42.6967 31.2943 42.4339C31.621 42.1712 31.8625 41.8214 32.0187 41.3846C32.1785 40.9478 32.2584 40.4666 32.2584 39.9411C32.2584 39.419 32.1785 38.9396 32.0187 38.5028C31.8625 38.0625 31.621 37.7092 31.2943 37.4428C30.9676 37.1765 30.5557 37.0433 30.0585 37.0433C29.5578 37.0433 29.1423 37.1765 28.8121 37.4428C28.4854 37.7092 28.2421 38.0625 28.0823 38.5028C27.926 38.9396 27.8479 39.419 27.8479 39.9411C27.8479 40.4666 27.926 40.9478 28.0823 41.3846C28.2421 41.8214 28.4854 42.1712 28.8121 42.4339C29.1423 42.6967 29.5578 42.8281 30.0585 42.8281ZM39.1658 46.7859V33.0909H40.7585V46.7859H39.1658ZM39.1658 44.1651C38.587 44.1651 38.0597 44.0657 37.5838 43.8668C37.108 43.6644 36.6978 43.3768 36.3533 43.0039C36.0089 42.631 35.7425 42.1854 35.5543 41.6669C35.3697 41.1484 35.2773 40.5749 35.2773 39.9464C35.2773 39.3107 35.3697 38.7337 35.5543 38.2152C35.7425 37.6967 36.0089 37.2511 36.3533 36.8782C36.6978 36.5053 37.108 36.2177 37.5838 36.0153C38.0597 35.8129 38.587 35.7116 39.1658 35.7116H39.56V44.1651H39.1658ZM39.1658 42.8228H39.3896V37.054H39.1658C38.7823 37.054 38.4485 37.1321 38.1644 37.2884C37.8803 37.4411 37.6442 37.6523 37.456 37.9222C37.2678 38.1886 37.1257 38.4957 37.0298 38.8438C36.9375 39.1918 36.8913 39.5593 36.8913 39.9464C36.8913 40.4648 36.9748 40.9425 37.1417 41.3793C37.3086 41.8125 37.5607 42.1623 37.8981 42.4286C38.2354 42.6914 38.658 42.8228 39.1658 42.8228ZM40.7585 44.1651H40.359V35.7116H40.7585C41.3374 35.7116 41.8647 35.8129 42.3406 36.0153C42.8164 36.2177 43.2248 36.5053 43.5657 36.8782C43.9102 37.2511 44.1747 37.6967 44.3594 38.2152C44.5476 38.7337 44.6417 39.3107 44.6417 39.9464C44.6417 40.5749 44.5476 41.1484 44.3594 41.6669C44.1747 42.1854 43.9102 42.631 43.5657 43.0039C43.2248 43.3768 42.8164 43.6644 42.3406 43.8668C41.8647 44.0657 41.3374 44.1651 40.7585 44.1651ZM40.7585 42.8228C41.142 42.8228 41.4759 42.7482 41.7599 42.5991C42.044 42.4464 42.2802 42.2369 42.4684 41.9705C42.6566 41.7006 42.7969 41.3935 42.8892 41.049C42.9815 40.701 43.0277 40.3335 43.0277 39.9464C43.0277 39.4315 42.9442 38.9556 42.7773 38.5188C42.614 38.0785 42.3636 37.7251 42.0263 37.4588C41.6889 37.1889 41.2663 37.054 40.7585 37.054H40.5295V42.8228H40.7585ZM47.9722 41.7681L51.5784 35.8182H53.2936V44H51.7329V38.0447L48.1427 44H46.4115V35.8182H47.9722V41.7681ZM54.7904 44L54.7851 42.6204H55.078C55.3053 42.6204 55.4953 42.5724 55.648 42.4766C55.8042 42.3771 55.9321 42.2102 56.0315 41.9759C56.1309 41.7415 56.2073 41.4183 56.2606 41.0064C56.3138 40.5909 56.3529 40.0689 56.3778 39.4403L56.5216 35.8182H62.2318V44H60.6711V37.1925H57.9971L57.8692 39.973C57.8373 40.6477 57.768 41.2372 57.6615 41.7415C57.5585 42.2457 57.4076 42.6665 57.2087 43.0039C57.0099 43.3377 56.7542 43.5881 56.4417 43.755C56.1292 43.9183 55.7492 44 55.3018 44H54.7904ZM65.5543 38.6307H67.93C68.9315 38.6307 69.7021 38.8793 70.2418 39.3764C70.7816 39.8736 71.0515 40.5146 71.0515 41.2994C71.0515 41.8107 70.9308 42.2706 70.6893 42.679C70.4478 43.0874 70.0945 43.4105 69.6293 43.6484C69.1641 43.8828 68.5977 44 67.93 44H64.3558V35.8182H65.9165V42.6257H67.93C68.3881 42.6257 68.7646 42.5067 69.0593 42.2688C69.354 42.0273 69.5014 41.7202 69.5014 41.3473C69.5014 40.9531 69.354 40.6317 69.0593 40.3832C68.7646 40.131 68.3881 40.005 67.93 40.005H65.5543V38.6307Z" fill="#333333"/>
</svg>
