<svg width="18" height="19" viewBox="0 0 18 19" fill="none" xmlns="http://www.w3.org/2000/svg">
<path d="M17.385 14.5519L14.3443 11.4922L12.0055 10.5199C12.7843 9.40552 13.2015 8.07607 13.2 6.71376C13.2 3.0517 10.2392 0.0724182 6.59999 0.0724182C2.96073 0.0724182 0 3.0517 0 6.71376C0 10.3758 2.96073 13.3551 6.59999 13.3551C7.96559 13.3567 9.29768 12.9296 10.4107 12.1334L11.3744 14.4805L14.415 17.5403C14.61 17.7366 14.8415 17.8922 15.0963 17.9984C15.351 18.1046 15.6241 18.1593 15.8999 18.1593C16.1757 18.1593 16.4488 18.1047 16.7036 17.9985C16.9583 17.8923 17.1899 17.7366 17.3849 17.5404C17.5799 17.3442 17.7346 17.1112 17.8401 16.8549C17.9457 16.5985 18 16.3237 18 16.0462C18 15.7687 17.9457 15.4939 17.8402 15.2375C17.7346 14.9811 17.58 14.7481 17.385 14.5519ZM1.2 6.71376C1.2 3.71761 3.62249 1.27994 6.59999 1.27994C9.57748 1.27994 12 3.71761 12 6.71376C12 9.70991 9.57748 12.1476 6.59999 12.1476C3.62249 12.1476 1.2 9.70991 1.2 6.71376ZM16.5364 16.6865C16.3675 16.8561 16.1386 16.9513 15.9 16.9513C15.6613 16.9513 15.4325 16.8561 15.2636 16.6865L12.3921 13.7971L11.4961 11.6147L13.665 12.5163L16.5364 15.4057C16.705 15.5757 16.7996 15.806 16.7996 16.0461C16.7996 16.2862 16.7049 16.5165 16.5364 16.6865Z" fill="#333333"/>
</svg>
